<?xml version="1.0" encoding="utf-8"?><svg fill="none" viewBox="150 50 1620 980" xmlns="http://www.w3.org/2000/svg"><defs /><g transform="matrix(1,0,0,1,0,0)" id="White Solid 1" /><g transform="matrix(0.248,0,0,0.248,282,58)" id="web294222 [Converted] Outlines"><g id="Group 8" transform="matrix(1,0,0,1,3325.734,1998.454)"><path fill="#ecf3fe" fill-opacity="1" d="M866.097,1445.724C1293.381,1163.969,1575.348,679.728,1575.348,129.623C1575.348,-740.417,870.04,-1445.724,0,-1445.724C-870.04,-1445.724,-1575.347,-740.417,-1575.347,129.623C-1575.347,679.728,-1293.381,1163.969,-866.096,1445.724L866.097,1445.724Z" /></g><g id="Group 7" transform="matrix(1,0,0,1,2676.081,3384.16)"><path fill="#d7e4f9" fill-opacity="1" d="M1973.133,0C1973.133,63.274,1089.732,114.567,0,114.567C-1089.731,114.567,-1973.133,63.274,-1973.133,0C-1973.133,-63.273,-1089.731,-114.567,0,-114.567C1089.732,-114.567,1973.133,-63.273,1973.133,0Z" /></g><g id="Group 6" transform="matrix(1,0,0,1,1482.17,2248.681)"><path fill="#ecf3fe" fill-opacity="1" d="M934.183,0C934.183,515.935,515.935,934.183,0,934.183C-515.935,934.183,-934.183,515.935,-934.183,0C-934.183,-515.936,-515.935,-934.183,0,-934.183C515.935,-934.183,934.183,-515.936,934.183,0Z" /></g><g id="Group 5" transform="matrix(1,0,0,1,4399.045,2724.646)"><path fill="#ffffff" fill-opacity="1" d="M-117.406,381.242C-98.956,386.829,-83.81,399.266,-74.759,416.264C-65.718,433.241,-63.851,452.719,-69.502,471.108L-97.386,562.26C-54.542,550.11,-19.938,516.827,-6.565,473.361C0.3,450.801,1.007,426.714,-4.531,403.739C-10.047,381.244,-21.19,360.545,-36.746,343.926L-41.584,338.758L45.194,54.568L151.512,-293.987L154.511,-303.631L161.381,-305.2C207.511,-315.739,244.776,-350.425,258.633,-395.723C268.081,-426.766,265.763,-460.055,252.102,-489.442L252.036,-489.585C247.817,-498.977,242.664,-507.595,236.721,-515.201L236.576,-515.391C235.424,-516.927,234.214,-518.455,232.948,-519.975L205.207,-428.904C193.67,-390.915,153.347,-369.369,115.327,-380.887C96.759,-386.592,81.576,-399.139,72.53,-416.232C63.553,-433.193,61.722,-452.625,67.374,-470.951L95.126,-562.062C52.293,-549.712,17.788,-516.424,4.558,-473.146C-0.239,-457.381,-2.064,-441.36,-0.863,-425.54L-0.854,-425.413C-0.38,-418.161,0.696,-410.756,2.34,-403.402C7.916,-381.142,19.126,-360.486,34.763,-343.662L39.564,-338.497L-42.208,-70.831L-153.228,293.049L-157.022,305.973L-165,305.774C-211.094,316.971,-246.863,350.607,-260.777,395.903C-268.283,420.766,-268.418,446.956,-261.149,471.602C-261.083,471.802,-261.063,471.869,-260.986,472.132C-260.731,472.969,-260.469,473.822,-260.272,474.308L-259.972,475.129C-254.58,491.7,-246.098,506.995,-235.072,520.181L-207.217,429.125C-195.735,391.217,-155.442,369.721,-117.406,381.242ZM-132.354,592.879L-92.907,463.931C-89.177,451.797,-90.408,438.96,-96.366,427.771C-102.336,416.561,-112.327,408.358,-124.501,404.672C-149.619,397.062,-176.219,411.232,-183.797,436.254L-223.286,565.337L-237.54,552.688C-258.543,534.052,-274.302,509.986,-283.132,483.072C-283.661,481.706,-284.064,480.381,-284.425,479.198L-284.567,478.737C-293.251,449.446,-293.122,418.337,-284.195,388.771C-275.956,361.947,-260.794,337.871,-240.331,319.089C-222.024,302.285,-199.839,289.992,-175.851,283.308L-65.622,-77.98L12.084,-332.338C-3.923,-351.183,-15.463,-373.612,-21.449,-397.62L-21.514,-397.899C-23.45,-406.516,-24.717,-415.216,-25.279,-423.76C-26.7,-442.596,-24.54,-461.614,-18.857,-480.287C-9.829,-509.82,7.405,-535.762,30.986,-555.321C53.897,-574.325,81.649,-586.447,111.24,-590.375L130.103,-592.879L90.78,-463.778C87.044,-451.664,88.251,-438.861,94.166,-427.684C100.153,-416.374,110.203,-408.071,122.47,-404.302C147.535,-396.712,174.165,-410.937,181.786,-436.029L221.164,-565.301L235.454,-552.477C243.345,-545.396,250.285,-537.894,256.086,-530.179C263.191,-521.069,269.329,-510.814,274.33,-499.698C290.511,-464.852,293.252,-425.392,282.048,-388.578C273.786,-361.571,258.515,-337.345,237.881,-318.501C219.641,-301.845,197.603,-289.69,173.782,-283.09L68.609,61.715L-14.092,332.55C1.835,351.237,13.312,373.708,19.257,397.956C25.828,425.218,24.99,453.754,16.844,480.524C-1.314,539.543,-52.495,582.689,-113.557,590.48L-132.354,592.879Z" /></g><g id="Group 4" transform="matrix(1,0,0,1,3099.253,1565.519)"><path fill="#ffffff" fill-opacity="1" d="M350.598,301.099C352.474,366.109,387.46,423.627,444.295,455.056C475.494,472.114,510.539,479.657,545.594,476.842C545.868,476.811,545.934,476.806,546.27,476.779C547.528,476.668,548.82,476.553,549.707,476.392L550.571,476.267C576.77,473.441,601.945,465.116,624.378,451.963L506.447,386.923C484.877,375.106,469.212,355.582,462.366,331.962C455.532,308.381,458.287,283.493,470.125,261.884C481.972,240.257,501.527,224.569,525.187,217.708C548.814,210.857,573.688,213.642,595.221,225.553L713.24,290.641C711.474,227.01,676.077,167.996,619.453,136.65C591.178,121.111,559.13,113.395,526.837,114.343C495.18,115.397,464.354,124.489,437.739,140.633L431.686,144.304L85.929,-46.145L-340.733,-280.993L-350.432,-286.4L-350.555,-293.446C-351.686,-358.145,-387.626,-417.772,-444.35,-449.056C-483.249,-470.435,-528.461,-476.695,-571.643,-466.675L-571.796,-466.641C-585.561,-463.632,-598.564,-459.151,-610.443,-453.323L-610.659,-453.22C-615.226,-451.088,-619.818,-448.668,-624.404,-445.974L-506.405,-381.083C-484.759,-369.203,-469.054,-349.646,-462.191,-326.021C-455.339,-302.435,-458.088,-277.539,-469.931,-255.92C-481.956,-234.179,-501.663,-218.469,-525.446,-211.638C-549.036,-204.862,-573.845,-207.681,-595.298,-219.575L-713.335,-284.488C-711.274,-220.803,-675.827,-161.908,-619.417,-130.814C-599.664,-119.958,-578.725,-113.007,-557.194,-110.164L-557.067,-110.146C-547.227,-108.741,-537.018,-108.091,-526.718,-108.234C-495.36,-109.426,-464.563,-118.615,-437.652,-134.811L-431.61,-138.447L-106.078,40.92L339.338,286.131L352.455,293.173L350.604,300.964C350.602,301.009,350.6,301.054,350.598,301.099ZM531.224,501.898C496.924,501.899,463.102,493.238,432.499,476.508C400.337,458.723,373.55,432.794,354.982,401.497C337.983,372.849,328.133,340.269,326.339,306.92L-117.888,62.363L-431.194,-110.267C-460.181,-94.139,-492.789,-85,-525.949,-83.765L-526.235,-83.757C-537.835,-83.599,-549.341,-84.318,-560.46,-85.902C-584.995,-89.15,-608.8,-97.045,-631.221,-109.367C-666.655,-128.899,-695.276,-157.986,-714.001,-193.49C-732.198,-227.993,-740.265,-266.849,-737.328,-305.858L-735.899,-324.835L-583.464,-241.005C-567.696,-232.265,-549.505,-230.198,-532.204,-235.167C-514.71,-240.192,-500.211,-251.754,-491.378,-267.725C-473.462,-300.427,-485.481,-341.673,-518.193,-359.627L-670.785,-443.543L-655.297,-454.89C-644.066,-463.118,-632.567,-470.003,-621.115,-475.355C-607.52,-482.013,-592.709,-487.123,-577.089,-490.542C-528.055,-501.899,-476.722,-494.782,-432.543,-470.501C-400.141,-452.631,-373.192,-426.523,-354.591,-394.992C-337.766,-366.468,-328.056,-334.118,-326.327,-301.007L97.737,-67.59L431.224,116.101C459.964,100.032,492.599,90.989,526.07,89.874C562.77,88.8,599.145,97.556,631.277,115.214C666.676,134.81,695.263,163.923,713.98,199.424C732.26,234.097,740.266,273.041,737.131,312.047L735.613,330.936L583.386,246.982C567.577,238.238,549.334,236.194,532.004,241.221C514.643,246.254,500.292,257.77,491.596,273.645C482.889,289.537,480.859,307.828,485.879,325.147C490.899,342.468,502.391,356.787,518.239,365.47L670.589,449.491L655.281,460.84C625.691,482.775,590.537,496.507,553.593,500.564C551.76,500.87,549.964,501.029,548.364,501.17L547.754,501.227C542.243,501.676,536.724,501.898,531.224,501.898Z" /></g><g><g transform="translate(1649.085,1592.982)"><g id="Group 3" transform="rotate(0)"><animateTransform repeatCount="indefinite" type="rotate" attributeName="transform" dur="7.916s" begin="0s" calcMode="spline" values="0; 180" keyTimes="0; 1" keySplines="0 0 1 1" fill="freeze" /><path fill="#c4d7f2" fill-opacity="1" d="M53.798,186.781C-49.356,216.496,-157.078,156.97,-186.798,53.801C-216.513,-49.353,-156.967,-157.066,-53.813,-186.781C49.342,-216.497,157.064,-156.968,186.779,-53.814C216.498,49.355,156.953,157.066,53.798,186.781ZM389.02,-173.74L438.627,-253.564C391.79,-312.301,391.669,-312.452,344.832,-371.189L255.955,-340.602C214.553,-363.485,193.64,-375.045,152.224,-397.924L130.858,-489.457C56.206,-497.869,56.013,-497.89,-18.64,-506.302L-59.855,-421.827L-173.738,-389.021L-253.577,-438.625C-312.3,-391.792,-312.451,-391.67,-371.188,-344.833L-340.599,-255.958C-363.483,-214.556,-375.042,-193.641,-397.926,-152.24L-489.454,-130.861C-497.867,-56.208,-497.889,-56.015,-506.301,18.637L-421.83,59.84L-389.024,173.721L-438.627,253.561C-391.79,312.299,-391.669,312.45,-344.832,371.187L-255.955,340.597C-214.554,363.481,-193.64,375.04,-152.239,397.923L-130.858,489.452C-56.206,497.864,-56.013,497.886,18.625,506.302L59.84,421.828L173.724,389.022L253.563,438.625C312.299,391.788,312.451,391.668,371.188,344.831L340.585,255.958C363.483,214.553,375.042,193.639,397.925,152.238L489.454,130.856C497.866,56.203,497.889,56.01,506.301,-18.642L421.826,-59.856L389.02,-173.74Z" /></g></g></g><g id="Group 2" transform="matrix(1,0,0,1,2527.548,2902.053)"><path fill="#ecf3fe" fill-opacity="1" d="M181.156,23.937L-181.156,23.937L-181.156,-23.937L181.156,-23.937L181.156,23.937Z" /></g><g id="Group 1" transform="matrix(1,0,0,1,2527.548,3014.545)"><path fill="#ecf3fe" fill-opacity="1" d="M181.156,23.937L-181.156,23.937L-181.156,-23.937L181.156,-23.937L181.156,23.937Z" /></g></g><g transform="matrix(0.238,0,0,0.238,305.995,64.36)" id="web29422 [Converted] Outlines"><g id="Group 127" transform="matrix(1,0,0,1,2676.081,3384.16)"><path fill="#d7e4f9" fill-opacity="1" d="M1973.133,0C1973.133,63.274,1089.732,114.567,0,114.567C-1089.731,114.567,-1973.133,63.274,-1973.133,0C-1973.133,-63.273,-1089.731,-114.567,0,-114.567C1089.732,-114.567,1973.133,-63.273,1973.133,0Z" /></g><g id="Group 125" transform="matrix(1,0,0,1,1210.768,2819.218)"><path fill="#33da82" fill-opacity="1" d="M559.364,442.788C559.364,442.788,-472.344,-20.628,-559.364,-308.537C-559.364,-308.537,-480.334,-442.788,-1.693,-23.316C476.948,396.154,559.364,442.788,559.364,442.788Z" /></g><g id="Group 124" transform="matrix(1,0,0,1,1421.593,2809.937)"><path fill="#33da82" fill-opacity="1" d="M381.624,476.074C381.624,476.074,-371.107,-125.996,-381.624,-382.113C-381.624,-382.113,-287.824,-476.074,17.858,-28.014C323.541,420.047,381.624,476.074,381.624,476.074Z" /></g><g id="Group 123" transform="matrix(1,0,0,1,1609.255,2839.645)"><path fill="#33da82" fill-opacity="1" d="M172.65,449.308C172.65,449.308,-172.649,-225.227,-97.53,-412.222C-97.53,-412.222,0.036,-449.308,74.566,-29.455C149.095,390.398,172.65,449.308,172.65,449.308Z" /></g><g id="Group 122" transform="matrix(1,0,0,1,1758.618,3229.493)"><path fill="#33da82" fill-opacity="1" d="M34.992,-124.402L-120.237,36.985L35.882,124.402L120.237,30.402L34.992,-124.402Z" /></g><g id="Group 120" transform="matrix(1,0,0,1,4403.223,3226.047)"><path fill="#33da82" fill-opacity="1" d="M-198.751,-9.557C-177.809,-42.41,-102.028,-117.112,28.22,-130.59C49.531,-132.795,96.853,-137.693,112.603,-124.03C143.896,-96.885,-14.095,-16.41,4.167,-2.12C23.582,13.072,208.579,-70.062,237.006,-51.255C250.358,-42.422,109.359,6.769,105.523,90.521C104.656,109.443,110.889,125.812,117.177,137.692L-248.377,104.516C-248.377,104.516,-250.358,71.398,-198.751,-9.557Z" /></g><g id="Group 117" transform="matrix(1,0,0,1,3952.116,3217.84)"><path fill="#c4d7f2" fill-opacity="1" d="M143.639,10.17L143.639,-10.17C143.639,-10.85,143.088,-11.4,142.409,-11.4L-142.409,-11.4C-143.088,-11.4,-143.638,-10.85,-143.638,-10.17L-143.638,10.17C-143.638,10.849,-143.088,11.399,-142.409,11.399L142.409,11.399C143.088,11.399,143.639,10.85,143.639,10.17Z" /></g><g id="Group 116" transform="matrix(1,0,0,1,3952.952,2214.611)"><path fill="#3b82f4" fill-opacity="1" d="M-114.463,856.409L91.019,856.409L-114.463,982.269L-114.463,856.409ZM114.463,-822.208L-48.535,-922.043L114.463,-922.043L114.463,-822.208ZM-114.463,702.782L99.113,833.609L-114.463,833.609L-114.463,702.782ZM114.463,687.379L114.463,818.234L-99.178,687.379L114.463,687.379ZM-114.463,-658.165L-114.463,-784.399L91.636,-784.399L-114.463,-658.165ZM114.463,538.738L114.463,664.579L-90.993,664.579L114.463,538.738ZM114.463,-644.429L-96.455,-644.429L114.463,-773.613L114.463,-644.429ZM-93.719,-621.629L114.463,-621.629L114.463,-494.119L-93.719,-621.629ZM114.463,10.071L-93.719,10.071L114.463,-117.435L114.463,10.071ZM-96.449,32.872L114.463,32.872L114.463,162.055L-96.449,32.872ZM-92.349,337.322L114.463,210.649L114.463,337.322L-92.349,337.322ZM-97.825,360.122L114.463,360.122L114.463,490.14L-97.825,360.122ZM-114.463,504.787L-114.463,374.699L97.933,504.787L-114.463,504.787ZM92.228,527.588L-114.463,654.185L-114.463,527.588L92.228,527.588ZM-114.463,-481.659L-114.463,-609.568L94.367,-481.659L-114.463,-481.659ZM-114.463,-458.859L95.797,-458.859L-114.463,-330.075L-114.463,-458.859ZM114.463,-294.378L114.463,-166.035L-95.088,-294.378L114.463,-294.378ZM-95.087,-317.178L114.463,-445.524L114.463,-317.178L-95.087,-317.178ZM-114.463,-154.408L-114.463,-281.479L92.998,-154.408L-114.463,-154.408ZM-114.463,-131.609L97.156,-131.609L-114.463,-1.991L-114.463,-131.609ZM90.869,200.338L-114.463,326.102L-114.463,200.338L90.869,200.338ZM-114.463,177.537L-114.463,46.607L99.304,177.537L-114.463,177.537ZM-88.977,-922.043L98.529,-807.199L-114.463,-807.199L-114.463,-922.043L-88.977,-922.043ZM150.904,-984.124L128.573,-984.124L128.573,-1054.983C128.573,-1055.663,128.022,-1056.213,127.343,-1056.213L-127.343,-1056.213C-128.023,-1056.213,-128.572,-1055.663,-128.572,-1054.983L-128.572,-984.124L-150.904,-984.124C-152.264,-984.124,-153.364,-983.023,-153.364,-981.664L-153.364,-924.503L-153.364,1053.753C-153.364,1055.111,-152.264,1056.213,-150.904,1056.213L-116.923,1056.213C-115.564,1056.213,-114.463,1055.111,-114.463,1053.752L-114.463,1007.038L114.463,866.837L114.463,1053.753C114.463,1055.111,115.564,1056.213,116.923,1056.213L150.904,1056.213C152.263,1056.213,153.364,1055.111,153.364,1053.753L153.364,-924.503L153.364,-981.664C153.364,-983.023,152.263,-984.124,150.904,-984.124Z" /></g><g id="Group 115" transform="matrix(1,0,0,1,3955.463,3283.22)"><path fill="#aac5e5" fill-opacity="1" d="M277.946,61.078L277.946,-61.075C277.946,-64.61,275.082,-67.474,271.549,-67.474L-271.547,-67.474C-275.08,-67.474,-277.946,-64.61,-277.946,-61.075L-277.946,61.078C-277.946,64.611,-275.08,67.475,-271.547,67.475L271.548,67.475C275.082,67.475,277.946,64.611,277.946,61.078Z" /></g><g id="Group 114" transform="matrix(1,0,0,1,3544.715,1078.271)"><path fill="#3b82f4" fill-opacity="1" d="M409.969,61.946L543.733,-58.842L677.599,61.946L409.969,61.946ZM-558.344,-50.821L-558.344,61.946L-700.703,61.946L-558.344,-50.821ZM199.31,-58.694L333.379,61.946L65.695,61.946L199.31,-58.694ZM-110.297,-64.21L164.698,-64.21L27.442,59.713L-110.297,-64.21ZM-144.968,-58.692L-10.885,61.946L-278.584,61.946L-144.968,-58.692ZM-454.575,-64.21L-179.576,-64.21L-316.842,59.713L-454.575,-64.21ZM-531.053,-64.21L-495.372,-64.21L-355.157,61.946L-531.053,61.946L-531.053,-64.21ZM508.977,-64.21L371.699,59.707L233.991,-64.21L508.977,-64.21ZM718.311,61.946L578.49,-64.21L559.383,-81.462L546.812,-92.81L545.26,-94.21L526.177,-94.21L-544.7,-94.21C-546.761,-94.21,-548.798,-93.549,-550.477,-92.225L-554.09,-89.401L-747.904,61.946L-750.473,63.956C-752.763,65.712,-754.088,68.46,-754.088,71.335L-754.088,84.821C-754.088,88.434,-752.026,91.716,-748.795,93.268C-747.497,93.904,-746.097,94.21,-744.698,94.21L713.349,94.21L754.088,94.21L718.311,61.946Z" /></g><g id="Group 113" transform="matrix(1,0,0,1,3952.952,1201.484)"><path fill="#36588e" fill-opacity="1" d="M128.573,29.003L-128.573,29.003L-128.573,-29.003L128.573,-29.003L128.573,29.003Z" /></g><g id="Group 112" transform="matrix(1,0,0,1,2771.112,2469.395)"><path fill="#ffffff" fill-opacity="1" d="M1074.605,881.3L-1074.605,881.3C-1117.87,881.3,-1152.944,846.227,-1152.944,802.962L-1152.944,-802.962C-1152.944,-846.227,-1117.87,-881.3,-1074.605,-881.3L1074.605,-881.3C1117.87,-881.3,1152.943,-846.227,1152.943,-802.962L1152.943,802.962C1152.943,846.227,1117.87,881.3,1074.605,881.3Z" /></g><g id="Group 111" transform="matrix(1,0,0,1,2771.112,2467.362)"><path fill="#c4d7f2" fill-opacity="1" d="M-867.129,-750.285L-912.805,-750.285C-918.664,-750.285,-923.413,-755.035,-923.413,-760.893C-923.413,-766.752,-918.664,-771.502,-912.805,-771.502L-867.129,-771.502C-861.27,-771.502,-856.521,-766.752,-856.521,-760.893C-856.521,-755.035,-861.27,-750.285,-867.129,-750.285ZM-775.777,-750.285L-821.453,-750.285C-827.312,-750.285,-832.062,-755.035,-832.062,-760.893C-832.062,-766.752,-827.312,-771.502,-821.453,-771.502L-775.777,-771.502C-769.919,-771.502,-765.169,-766.752,-765.169,-760.893C-765.169,-755.035,-769.919,-750.285,-775.777,-750.285ZM-684.426,-750.285L-730.102,-750.285C-735.961,-750.285,-740.71,-755.035,-740.71,-760.893C-740.71,-766.752,-735.961,-771.502,-730.102,-771.502L-684.426,-771.502C-678.567,-771.502,-673.818,-766.752,-673.818,-760.893C-673.818,-755.035,-678.567,-750.285,-684.426,-750.285ZM-593.074,-750.285L-638.75,-750.285C-644.609,-750.285,-649.358,-755.035,-649.358,-760.893C-649.358,-766.752,-644.609,-771.502,-638.75,-771.502L-593.074,-771.502C-587.215,-771.502,-582.466,-766.752,-582.466,-760.893C-582.466,-755.035,-587.215,-750.285,-593.074,-750.285ZM-501.723,-750.285L-547.399,-750.285C-553.257,-750.285,-558.007,-755.035,-558.007,-760.893C-558.007,-766.752,-553.257,-771.502,-547.399,-771.502L-501.723,-771.502C-495.864,-771.502,-491.115,-766.752,-491.115,-760.893C-491.115,-755.035,-495.864,-750.285,-501.723,-750.285ZM-410.371,-750.285L-456.047,-750.285C-461.906,-750.285,-466.655,-755.035,-466.655,-760.893C-466.655,-766.752,-461.906,-771.502,-456.047,-771.502L-410.371,-771.502C-404.512,-771.502,-399.763,-766.752,-399.763,-760.893C-399.763,-755.035,-404.512,-750.285,-410.371,-750.285ZM-319.02,-750.285L-364.695,-750.285C-370.554,-750.285,-375.303,-755.035,-375.303,-760.893C-375.303,-766.752,-370.554,-771.502,-364.695,-771.502L-319.02,-771.502C-313.161,-771.502,-308.411,-766.752,-308.411,-760.893C-308.411,-755.035,-313.161,-750.285,-319.02,-750.285ZM-227.668,-750.285L-273.344,-750.285C-279.203,-750.285,-283.952,-755.035,-283.952,-760.893C-283.952,-766.752,-279.203,-771.502,-273.344,-771.502L-227.668,-771.502C-221.809,-771.502,-217.06,-766.752,-217.06,-760.893C-217.06,-755.035,-221.809,-750.285,-227.668,-750.285ZM-136.317,-750.285L-181.992,-750.285C-187.851,-750.285,-192.6,-755.035,-192.6,-760.893C-192.6,-766.752,-187.851,-771.502,-181.992,-771.502L-136.317,-771.502C-130.458,-771.502,-125.708,-766.752,-125.708,-760.893C-125.708,-755.035,-130.458,-750.285,-136.317,-750.285ZM-44.965,-750.285L-90.641,-750.285C-96.5,-750.285,-101.249,-755.035,-101.249,-760.893C-101.249,-766.752,-96.5,-771.502,-90.641,-771.502L-44.965,-771.502C-39.106,-771.502,-34.357,-766.752,-34.357,-760.893C-34.357,-755.035,-39.106,-750.285,-44.965,-750.285ZM46.386,-750.285L0.71,-750.285C-5.148,-750.285,-9.898,-755.035,-9.898,-760.893C-9.898,-766.752,-5.148,-771.502,0.71,-771.502L46.386,-771.502C52.245,-771.502,56.995,-766.752,56.995,-760.893C56.995,-755.035,52.245,-750.285,46.386,-750.285ZM137.738,-750.285L92.062,-750.285C86.203,-750.285,81.454,-755.035,81.454,-760.893C81.454,-766.752,86.203,-771.502,92.062,-771.502L137.738,-771.502C143.596,-771.502,148.346,-766.752,148.346,-760.893C148.346,-755.035,143.596,-750.285,137.738,-750.285ZM229.089,-750.285L183.413,-750.285C177.555,-750.285,172.805,-755.035,172.805,-760.893C172.805,-766.752,177.555,-771.502,183.413,-771.502L229.089,-771.502C234.948,-771.502,239.698,-766.752,239.698,-760.893C239.698,-755.035,234.948,-750.285,229.089,-750.285ZM320.441,-750.285L274.765,-750.285C268.907,-750.285,264.157,-755.035,264.157,-760.893C264.157,-766.752,268.907,-771.502,274.765,-771.502L320.441,-771.502C326.299,-771.502,331.049,-766.752,331.049,-760.893C331.049,-755.035,326.299,-750.285,320.441,-750.285ZM411.792,-750.285L366.117,-750.285C360.258,-750.285,355.508,-755.035,355.508,-760.893C355.508,-766.752,360.258,-771.502,366.117,-771.502L411.792,-771.502C417.651,-771.502,422.401,-766.752,422.401,-760.893C422.401,-755.035,417.651,-750.285,411.792,-750.285ZM503.144,-750.285L457.468,-750.285C451.61,-750.285,446.86,-755.035,446.86,-760.893C446.86,-766.752,451.61,-771.502,457.468,-771.502L503.144,-771.502C509.002,-771.502,513.752,-766.752,513.752,-760.893C513.752,-755.035,509.002,-750.285,503.144,-750.285ZM594.496,-750.285L548.82,-750.285C542.961,-750.285,538.211,-755.035,538.211,-760.893C538.211,-766.752,542.961,-771.502,548.82,-771.502L594.496,-771.502C600.354,-771.502,605.104,-766.752,605.104,-760.893C605.104,-755.035,600.354,-750.285,594.496,-750.285ZM685.847,-750.285L640.171,-750.285C634.313,-750.285,629.563,-755.035,629.563,-760.893C629.563,-766.752,634.313,-771.502,640.171,-771.502L685.847,-771.502C691.705,-771.502,696.455,-766.752,696.455,-760.893C696.455,-755.035,691.705,-750.285,685.847,-750.285ZM777.199,-750.285L731.523,-750.285C725.664,-750.285,720.914,-755.035,720.914,-760.893C720.914,-766.752,725.664,-771.502,731.523,-771.502L777.199,-771.502C783.057,-771.502,787.807,-766.752,787.807,-760.893C787.807,-755.035,783.057,-750.285,777.199,-750.285ZM868.55,-750.285L822.874,-750.285C817.016,-750.285,812.266,-755.035,812.266,-760.893C812.266,-766.752,817.016,-771.502,822.874,-771.502L868.55,-771.502C874.409,-771.502,879.159,-766.752,879.159,-760.893C879.159,-755.035,874.409,-750.285,868.55,-750.285ZM959.906,-750.269C959.828,-750.269,959.75,-750.27,959.671,-750.272C959.25,-750.281,958.829,-750.285,958.406,-750.285L914.226,-750.285C908.368,-750.285,903.618,-755.035,903.618,-760.893C903.618,-766.752,908.368,-771.502,914.226,-771.502L958.406,-771.502C958.982,-771.502,959.557,-771.495,960.13,-771.483C965.988,-771.356,970.633,-766.506,970.506,-760.648C970.381,-754.869,965.658,-750.269,959.906,-750.269ZM-1000.828,-735.619C-1003.971,-735.619,-1007.082,-737.01,-1009.174,-739.671C-1012.796,-744.277,-1011.998,-750.946,-1007.393,-754.567C-993.328,-765.626,-976.419,-771.482,-958.492,-771.502L-958.481,-771.502C-952.627,-771.502,-947.879,-766.76,-947.872,-760.905C-947.866,-755.046,-952.61,-750.292,-958.469,-750.285C-971.601,-750.27,-983.983,-745.984,-994.278,-737.889C-996.222,-736.361,-998.534,-735.619,-1000.828,-735.619ZM1025.458,-696.567C1020.596,-696.567,1016.213,-699.931,1015.113,-704.874C1012.315,-717.451,1005.249,-728.909,995.217,-737.137C990.687,-740.852,990.026,-747.536,993.742,-752.066C997.456,-756.597,1004.139,-757.257,1008.671,-753.542C1022.357,-742.318,1031.999,-726.67,1035.824,-709.481C1037.096,-703.763,1033.491,-698.095,1027.772,-696.823C1026.996,-696.65,1026.221,-696.567,1025.458,-696.567ZM-1027.107,-652.44C-1032.966,-652.44,-1037.715,-657.19,-1037.715,-663.048L-1037.715,-692.191C-1037.715,-698.574,-1036.953,-704.929,-1035.45,-711.079C-1034.059,-716.77,-1028.318,-720.256,-1022.627,-718.866C-1016.935,-717.474,-1013.449,-711.733,-1014.84,-706.042C-1015.941,-701.539,-1016.499,-696.879,-1016.499,-692.191L-1016.499,-663.048C-1016.499,-657.19,-1021.248,-652.44,-1027.107,-652.44ZM1027.108,-605.342C1021.249,-605.342,1016.499,-610.092,1016.499,-615.951L1016.499,-661.626C1016.499,-667.485,1021.249,-672.235,1027.108,-672.235C1032.967,-672.235,1037.716,-667.485,1037.716,-661.626L1037.716,-615.951C1037.716,-610.092,1032.967,-605.342,1027.108,-605.342ZM-1027.107,-561.089C-1032.966,-561.089,-1037.715,-565.838,-1037.715,-571.697L-1037.715,-617.372C-1037.715,-623.231,-1032.966,-627.981,-1027.107,-627.981C-1021.248,-627.981,-1016.499,-623.231,-1016.499,-617.372L-1016.499,-571.697C-1016.499,-565.838,-1021.248,-561.089,-1027.107,-561.089ZM1027.108,-513.991C1021.249,-513.991,1016.499,-518.74,1016.499,-524.599L1016.499,-570.275C1016.499,-576.134,1021.249,-580.883,1027.108,-580.883C1032.967,-580.883,1037.716,-576.134,1037.716,-570.275L1037.716,-524.599C1037.716,-518.74,1032.967,-513.991,1027.108,-513.991ZM-1027.107,-469.737C-1032.966,-469.737,-1037.715,-474.486,-1037.715,-480.345L-1037.715,-526.021C-1037.715,-531.88,-1032.966,-536.629,-1027.107,-536.629C-1021.248,-536.629,-1016.499,-531.88,-1016.499,-526.021L-1016.499,-480.345C-1016.499,-474.486,-1021.248,-469.737,-1027.107,-469.737ZM1027.108,-422.639C1021.249,-422.639,1016.499,-427.389,1016.499,-433.247L1016.499,-478.923C1016.499,-484.782,1021.249,-489.532,1027.108,-489.532C1032.967,-489.532,1037.716,-484.782,1037.716,-478.923L1037.716,-433.247C1037.716,-427.389,1032.967,-422.639,1027.108,-422.639ZM-1027.107,-378.385C-1032.966,-378.385,-1037.715,-383.135,-1037.715,-388.993L-1037.715,-434.669C-1037.715,-440.528,-1032.966,-445.278,-1027.107,-445.278C-1021.248,-445.278,-1016.499,-440.528,-1016.499,-434.669L-1016.499,-388.993C-1016.499,-383.135,-1021.248,-378.385,-1027.107,-378.385ZM1027.108,-331.287C1021.249,-331.287,1016.499,-336.037,1016.499,-341.896L1016.499,-387.572C1016.499,-393.43,1021.249,-398.18,1027.108,-398.18C1032.967,-398.18,1037.716,-393.43,1037.716,-387.572L1037.716,-341.896C1037.716,-336.037,1032.967,-331.287,1027.108,-331.287ZM-1027.107,-287.034C-1032.966,-287.034,-1037.715,-291.784,-1037.715,-297.642L-1037.715,-343.318C-1037.715,-349.176,-1032.966,-353.926,-1027.107,-353.926C-1021.248,-353.926,-1016.499,-349.176,-1016.499,-343.318L-1016.499,-297.642C-1016.499,-291.784,-1021.248,-287.034,-1027.107,-287.034ZM1027.108,-239.936C1021.249,-239.936,1016.499,-244.686,1016.499,-250.544L1016.499,-296.22C1016.499,-302.078,1021.249,-306.828,1027.108,-306.828C1032.967,-306.828,1037.716,-302.078,1037.716,-296.22L1037.716,-250.544C1037.716,-244.686,1032.967,-239.936,1027.108,-239.936ZM-1027.107,-195.682C-1032.966,-195.682,-1037.715,-200.432,-1037.715,-206.29L-1037.715,-251.966C-1037.715,-257.825,-1032.966,-262.575,-1027.107,-262.575C-1021.248,-262.575,-1016.499,-257.825,-1016.499,-251.966L-1016.499,-206.29C-1016.499,-200.432,-1021.248,-195.682,-1027.107,-195.682ZM1027.108,-148.584C1021.249,-148.584,1016.499,-153.334,1016.499,-159.193L1016.499,-204.868C1016.499,-210.727,1021.249,-215.477,1027.108,-215.477C1032.967,-215.477,1037.716,-210.727,1037.716,-204.868L1037.716,-159.193C1037.716,-153.334,1032.967,-148.584,1027.108,-148.584ZM-1027.107,-104.33C-1032.966,-104.33,-1037.715,-109.08,-1037.715,-114.939L-1037.715,-160.615C-1037.715,-166.474,-1032.966,-171.223,-1027.107,-171.223C-1021.248,-171.223,-1016.499,-166.474,-1016.499,-160.615L-1016.499,-114.939C-1016.499,-109.08,-1021.248,-104.33,-1027.107,-104.33ZM1027.108,-57.233C1021.249,-57.233,1016.499,-61.983,1016.499,-67.841L1016.499,-113.517C1016.499,-119.375,1021.249,-124.125,1027.108,-124.125C1032.967,-124.125,1037.716,-119.375,1037.716,-113.517L1037.716,-67.841C1037.716,-61.983,1032.967,-57.233,1027.108,-57.233ZM-1027.107,-12.979C-1032.966,-12.979,-1037.715,-17.729,-1037.715,-23.587L-1037.715,-69.263C-1037.715,-75.121,-1032.966,-79.871,-1027.107,-79.871C-1021.248,-79.871,-1016.499,-75.121,-1016.499,-69.263L-1016.499,-23.587C-1016.499,-17.729,-1021.248,-12.979,-1027.107,-12.979ZM1027.108,34.119C1021.249,34.119,1016.499,29.369,1016.499,23.51L1016.499,-22.165C1016.499,-28.024,1021.249,-32.774,1027.108,-32.774C1032.967,-32.774,1037.716,-28.024,1037.716,-22.165L1037.716,23.51C1037.716,29.369,1032.967,34.119,1027.108,34.119ZM-1027.107,78.373C-1032.966,78.373,-1037.715,73.623,-1037.715,67.764L-1037.715,22.089C-1037.715,16.23,-1032.966,11.48,-1027.107,11.48C-1021.248,11.48,-1016.499,16.23,-1016.499,22.089L-1016.499,67.764C-1016.499,73.623,-1021.248,78.373,-1027.107,78.373ZM1027.108,125.47C1021.249,125.47,1016.499,120.72,1016.499,114.862L1016.499,69.186C1016.499,63.327,1021.249,58.578,1027.108,58.578C1032.967,58.578,1037.716,63.327,1037.716,69.186L1037.716,114.862C1037.716,120.72,1032.967,125.47,1027.108,125.47ZM-1027.107,169.724C-1032.966,169.724,-1037.715,164.974,-1037.715,159.116L-1037.715,113.44C-1037.715,107.582,-1032.966,102.832,-1027.107,102.832C-1021.248,102.832,-1016.499,107.582,-1016.499,113.44L-1016.499,159.116C-1016.499,164.974,-1021.248,169.724,-1027.107,169.724ZM1027.108,216.822C1021.249,216.822,1016.499,212.072,1016.499,206.214L1016.499,160.538C1016.499,154.679,1021.249,149.929,1027.108,149.929C1032.967,149.929,1037.716,154.679,1037.716,160.538L1037.716,206.214C1037.716,212.072,1032.967,216.822,1027.108,216.822ZM-1027.107,261.076C-1032.966,261.076,-1037.715,256.326,-1037.715,250.467L-1037.715,204.792C-1037.715,198.933,-1032.966,194.183,-1027.107,194.183C-1021.248,194.183,-1016.499,198.933,-1016.499,204.792L-1016.499,250.467C-1016.499,256.326,-1021.248,261.076,-1027.107,261.076ZM1027.108,308.173C1021.249,308.173,1016.499,303.423,1016.499,297.565L1016.499,251.889C1016.499,246.031,1021.249,241.281,1027.108,241.281C1032.967,241.281,1037.716,246.031,1037.716,251.889L1037.716,297.565C1037.716,303.423,1032.967,308.173,1027.108,308.173ZM-1027.107,352.427C-1032.966,352.427,-1037.715,347.677,-1037.715,341.819L-1037.715,296.143C-1037.715,290.285,-1032.966,285.535,-1027.107,285.535C-1021.248,285.535,-1016.499,290.285,-1016.499,296.143L-1016.499,341.819C-1016.499,347.677,-1021.248,352.427,-1027.107,352.427ZM1027.108,399.525C1021.249,399.525,1016.499,394.775,1016.499,388.917L1016.499,343.241C1016.499,337.382,1021.249,332.632,1027.108,332.632C1032.967,332.632,1037.716,337.382,1037.716,343.241L1037.716,388.917C1037.716,394.775,1032.967,399.525,1027.108,399.525ZM-1027.107,443.779C-1032.966,443.779,-1037.715,439.029,-1037.715,433.171L-1037.715,387.495C-1037.715,381.636,-1032.966,376.886,-1027.107,376.886C-1021.248,376.886,-1016.499,381.636,-1016.499,387.495L-1016.499,433.171C-1016.499,439.029,-1021.248,443.779,-1027.107,443.779ZM1027.108,490.877C1021.249,490.877,1016.499,486.127,1016.499,480.268L1016.499,434.592C1016.499,428.734,1021.249,423.984,1027.108,423.984C1032.967,423.984,1037.716,428.734,1037.716,434.592L1037.716,480.268C1037.716,486.127,1032.967,490.877,1027.108,490.877ZM-1027.107,535.131C-1032.966,535.131,-1037.715,530.381,-1037.715,524.522L-1037.715,478.846C-1037.715,472.988,-1032.966,468.238,-1027.107,468.238C-1021.248,468.238,-1016.499,472.988,-1016.499,478.846L-1016.499,524.522C-1016.499,530.381,-1021.248,535.131,-1027.107,535.131ZM1027.108,582.228C1021.249,582.228,1016.499,577.478,1016.499,571.62L1016.499,525.944C1016.499,520.086,1021.249,515.336,1027.108,515.336C1032.967,515.336,1037.716,520.086,1037.716,525.944L1037.716,571.62C1037.716,577.478,1032.967,582.228,1027.108,582.228ZM-1027.107,626.482C-1032.966,626.482,-1037.715,621.733,-1037.715,615.875L-1037.715,570.198C-1037.715,564.34,-1032.966,559.59,-1027.107,559.59C-1021.248,559.59,-1016.499,564.34,-1016.499,570.198L-1016.499,615.875C-1016.499,621.733,-1021.248,626.482,-1027.107,626.482ZM1027.108,673.58C1021.249,673.58,1016.499,668.83,1016.499,662.971L1016.499,617.296C1016.499,611.437,1021.249,606.688,1027.108,606.688C1032.967,606.688,1037.716,611.437,1037.716,617.296L1037.716,662.971C1037.716,668.83,1032.967,673.58,1027.108,673.58ZM-1025.494,717.713C-1030.362,717.713,-1034.747,714.342,-1035.842,709.394C-1037.086,703.775,-1037.716,697.986,-1037.715,692.188L-1037.715,661.549C-1037.715,655.691,-1032.966,650.941,-1027.107,650.941C-1021.248,650.941,-1016.499,655.691,-1016.499,661.549L-1016.499,692.189C-1016.499,696.448,-1016.038,700.694,-1015.127,704.81C-1013.861,710.531,-1017.472,716.194,-1023.192,717.46C-1023.964,717.631,-1024.735,717.713,-1025.494,717.713ZM1000.902,756.789C997.764,756.789,994.657,755.403,992.563,752.747C988.937,748.145,989.727,741.475,994.329,737.848C1004.52,729.817,1011.81,718.499,1014.856,705.978C1016.241,700.286,1021.976,696.795,1027.671,698.178C1033.364,699.563,1036.856,705.301,1035.471,710.994C1031.309,728.103,1021.361,743.558,1007.461,754.512C1005.516,756.046,1003.201,756.789,1000.902,756.789ZM-959.972,771.483C-960.052,771.483,-960.133,771.482,-960.214,771.48C-978.125,771.079,-994.904,764.856,-1008.738,753.485C-1013.264,749.764,-1013.917,743.08,-1010.197,738.553C-1006.477,734.027,-999.793,733.374,-995.266,737.094C-985.138,745.42,-972.853,749.975,-959.738,750.269C-953.881,750.4,-949.239,755.256,-949.371,761.113C-949.5,766.888,-954.224,771.483,-959.972,771.483ZM-868.625,771.501L-914.3,771.501C-920.159,771.501,-924.909,766.751,-924.909,760.892C-924.909,755.033,-920.159,750.284,-914.3,750.284L-868.625,750.284C-862.766,750.284,-858.016,755.033,-858.016,760.892C-858.016,766.751,-862.766,771.501,-868.625,771.501ZM-777.273,771.501L-822.949,771.501C-828.808,771.501,-833.557,766.751,-833.557,760.892C-833.557,755.033,-828.808,750.284,-822.949,750.284L-777.273,750.284C-771.414,750.284,-766.665,755.033,-766.665,760.892C-766.665,766.751,-771.414,771.501,-777.273,771.501ZM-685.921,771.501L-731.597,771.501C-737.456,771.501,-742.205,766.751,-742.205,760.892C-742.205,755.033,-737.456,750.284,-731.597,750.284L-685.921,750.284C-680.063,750.284,-675.313,755.033,-675.313,760.892C-675.313,766.751,-680.063,771.501,-685.921,771.501ZM-594.57,771.501L-640.246,771.501C-646.105,771.501,-650.854,766.751,-650.854,760.892C-650.854,755.033,-646.105,750.284,-640.246,750.284L-594.57,750.284C-588.711,750.284,-583.962,755.033,-583.962,760.892C-583.962,766.751,-588.711,771.501,-594.57,771.501ZM-503.218,771.501L-548.894,771.501C-554.753,771.501,-559.503,766.751,-559.503,760.892C-559.503,755.033,-554.753,750.284,-548.894,750.284L-503.218,750.284C-497.359,750.284,-492.61,755.033,-492.61,760.892C-492.61,766.751,-497.359,771.501,-503.218,771.501ZM-411.867,771.501L-457.543,771.501C-463.402,771.501,-468.151,766.751,-468.151,760.892C-468.151,755.033,-463.402,750.284,-457.543,750.284L-411.867,750.284C-406.008,750.284,-401.259,755.033,-401.259,760.892C-401.259,766.751,-406.008,771.501,-411.867,771.501ZM-320.516,771.501L-366.192,771.501C-372.05,771.501,-376.8,766.751,-376.8,760.892C-376.8,755.033,-372.05,750.284,-366.192,750.284L-320.516,750.284C-314.657,750.284,-309.907,755.033,-309.907,760.892C-309.907,766.751,-314.657,771.501,-320.516,771.501ZM-229.164,771.501L-274.84,771.501C-280.699,771.501,-285.448,766.751,-285.448,760.892C-285.448,755.033,-280.699,750.284,-274.84,750.284L-229.164,750.284C-223.305,750.284,-218.556,755.033,-218.556,760.892C-218.556,766.751,-223.305,771.501,-229.164,771.501ZM-137.813,771.501L-183.488,771.501C-189.347,771.501,-194.097,766.751,-194.097,760.892C-194.097,755.033,-189.347,750.284,-183.488,750.284L-137.813,750.284C-131.954,750.284,-127.204,755.033,-127.204,760.892C-127.204,766.751,-131.954,771.501,-137.813,771.501ZM-46.461,771.501L-92.137,771.501C-97.996,771.501,-102.745,766.751,-102.745,760.892C-102.745,755.033,-97.996,750.284,-92.137,750.284L-46.461,750.284C-40.602,750.284,-35.853,755.033,-35.853,760.892C-35.853,766.751,-40.602,771.501,-46.461,771.501ZM44.89,771.501L-0.786,771.501C-6.644,771.501,-11.394,766.751,-11.394,760.892C-11.394,755.033,-6.644,750.284,-0.786,750.284L44.89,750.284C50.748,750.284,55.498,755.033,55.498,760.892C55.498,766.751,50.748,771.501,44.89,771.501ZM136.242,771.501L90.566,771.501C84.707,771.501,79.957,766.751,79.957,760.892C79.957,755.033,84.707,750.284,90.566,750.284L136.242,750.284C142.1,750.284,146.85,755.033,146.85,760.892C146.85,766.751,142.1,771.501,136.242,771.501ZM227.593,771.501L181.917,771.501C176.059,771.501,171.309,766.751,171.309,760.892C171.309,755.033,176.059,750.284,181.917,750.284L227.593,750.284C233.452,750.284,238.202,755.033,238.202,760.892C238.202,766.751,233.452,771.501,227.593,771.501ZM318.945,771.501L273.269,771.501C267.411,771.501,262.661,766.751,262.661,760.892C262.661,755.033,267.411,750.284,273.269,750.284L318.945,750.284C324.803,750.284,329.553,755.033,329.553,760.892C329.553,766.751,324.803,771.501,318.945,771.501ZM410.296,771.501L364.621,771.501C358.762,771.501,354.012,766.751,354.012,760.892C354.012,755.033,358.762,750.284,364.621,750.284L410.296,750.284C416.155,750.284,420.905,755.033,420.905,760.892C420.905,766.751,416.155,771.501,410.296,771.501ZM501.648,771.501L455.972,771.501C450.114,771.501,445.364,766.751,445.364,760.892C445.364,755.033,450.114,750.284,455.972,750.284L501.648,750.284C507.506,750.284,512.256,755.033,512.256,760.892C512.256,766.751,507.506,771.501,501.648,771.501ZM592.999,771.501L547.324,771.501C541.465,771.501,536.715,766.751,536.715,760.892C536.715,755.033,541.465,750.284,547.324,750.284L592.999,750.284C598.858,750.284,603.608,755.033,603.608,760.892C603.608,766.751,598.858,771.501,592.999,771.501ZM684.351,771.501L638.675,771.501C632.817,771.501,628.067,766.751,628.067,760.892C628.067,755.033,632.817,750.284,638.675,750.284L684.351,750.284C690.21,750.284,694.959,755.033,694.959,760.892C694.959,766.751,690.21,771.501,684.351,771.501ZM775.703,771.501L730.027,771.501C724.168,771.501,719.418,766.751,719.418,760.892C719.418,755.033,724.168,750.284,730.027,750.284L775.703,750.284C781.561,750.284,786.311,755.033,786.311,760.892C786.311,766.751,781.561,771.501,775.703,771.501ZM867.054,771.501L821.378,771.501C815.52,771.501,810.77,766.751,810.77,760.892C810.77,755.033,815.52,750.284,821.378,750.284L867.054,750.284C872.913,750.284,877.663,755.033,877.663,760.892C877.663,766.751,872.913,771.501,867.054,771.501ZM958.557,771.501L912.73,771.501C906.871,771.501,902.121,766.751,902.121,760.892C902.121,755.033,906.871,750.284,912.73,750.284L958.557,750.284C964.415,750.284,969.165,755.033,969.165,760.892C969.165,766.751,964.415,771.501,958.557,771.501Z" /></g><g id="Group 109" transform="matrix(1,0,0,1,4221.307,2090.126)"><path fill="#fdc8aa" fill-opacity="1" d="M87.244,-42.178C87.244,-42.178,55.376,120.171,-15.926,110.135C-87.245,100.102,-85.239,69.538,-85.239,69.538C-85.239,69.538,-54.599,17.982,-48.651,-6.248C-44.358,-23.587,-41.199,-44.942,-42.879,-67.105L44.38,-109.351L66.721,-120.171L87.244,-42.178Z" /></g><g id="Group 108" transform="matrix(1,0,0,1,4224.442,2032.326)"><path fill="#efa37d" fill-opacity="1" d="M44.39,-20.409C17.215,44.007,-32.103,51.34,-51.786,51.552C-47.493,34.213,-44.335,12.859,-46.014,-9.305L41.244,-51.551C49.458,-47.453,51.786,-37.944,44.39,-20.409Z" /></g><g id="Group 107" transform="matrix(1,0,0,1,4215.755,2675.55)"><path fill="#f4b545" fill-opacity="1" d="M-262.434,-295.443C-260.043,-287.409,-256.922,-280.453,-253.237,-274.559C-234.146,-243.898,-199.567,-241.807,-166.15,-264.999L-165.353,-278.61L-163.925,-302.631L-148.271,-304.607L-120.215,-308.16C-120.215,-308.16,-120.648,-304.092,-121.295,-295.991C-121.626,-292.023,-122.008,-287.093,-122.39,-281.183C-122.921,-273.48,-123.386,-263.371,-123.786,-250.987C-127.703,-129.386,-123.602,210.481,-73.285,621.548L28.178,627.591L24.924,474.781L38.322,138.949L131.236,627.591L226.957,627.591L186.999,-188.087L185.238,-221.288C185.238,-221.288,213.045,-224.193,212.629,-250.755C212.58,-253.443,212.629,-255.867,212.729,-258.058C213.791,-277.581,220.664,-278.776,224.532,-280.635C224.947,-280.835,225.362,-281.216,225.761,-281.731C229.479,-286.579,232.235,-304.142,229.23,-314.252C225.91,-325.458,277.373,-422.987,245.001,-515.121C230.957,-555.095,200.445,-581.557,170.397,-598.706C165.517,-601.495,160.635,-604.051,155.838,-606.359C149.613,-609.363,143.553,-611.986,137.777,-614.244C113.822,-623.69,95.095,-627.175,93.004,-627.557L92.79,-627.59L92.79,-627.574C92.142,-626.047,50.192,-528.202,-41.063,-500.18C-41.079,-500.197,-41.08,-500.197,-41.096,-500.197L-41.096,-500.214C-41.461,-501.691,-58.461,-568.475,-44.582,-607.072C-133.529,-568.475,-213.91,-404.129,-213.91,-404.129C-213.91,-404.129,-219.72,-403.448,-229.78,-393.935C-229.78,-393.935,-277.374,-345.246,-262.434,-295.443Z" /></g><g id="Group 106" transform="matrix(1,0,0,1,4251.205,2425.445)"><path fill="#e59d29" fill-opacity="1" d="M-151.557,-63.34C-151.557,-63.34,53.031,76.289,151.556,62.012L149.78,28.81C149.78,28.81,116.779,29.308,105.374,24.428C93.953,19.547,-126.107,-76.289,-126.107,-76.289L-151.557,-63.34Z" /></g><g id="Group 105" transform="matrix(1,0,0,1,4052.732,2271.435)"><path fill="#e59d29" fill-opacity="1" d="M-18.859,-22.79C-18.859,-22.79,-29.19,15.198,-3.459,18.994C22.273,22.79,29.19,10.064,29.19,10.064L-18.859,-22.79Z" /></g><g id="Group 104" transform="matrix(1,0,0,1,4303.041,2275.242)"><path fill="#e59d29" fill-opacity="1" d="M17.154,15.77L31.818,-26.561L-31.819,26.561L17.154,15.77Z" /></g><g id="Group 103" transform="matrix(1,0,0,1,4204.582,2322.062)"><path fill="#fdc8aa" fill-opacity="1" d="M-152.221,-37.608L-98.118,18.453L-82.066,35.085C-82.066,35.085,-72.239,41.842,-55.887,51.787C-10.998,79.095,83.177,130.441,158.96,132.184C164.936,132.317,170.78,132.151,176.49,131.636C176.49,131.636,188.725,97.256,101.82,11.33C101.803,11.297,101.787,11.281,101.787,11.281L10.931,-6.93L3.842,-8.358L-15.397,-21.107L-65.847,-54.525L-70.512,-57.612C-70.512,-57.612,-72.604,-60.351,-76.206,-64.568C-92.392,-83.526,-138.924,-132.317,-161.334,-95.646C-188.726,-50.824,-152.221,-37.608,-152.221,-37.608Z" /></g><g id="Group 102" transform="matrix(1,0,0,1,4400.064,2382.031)"><path fill="#e59d29" fill-opacity="1" d="M-41.444,-33.144C-41.444,-33.144,15.463,3.776,28.429,35.451C29.475,15.928,36.347,14.734,40.215,12.875C40.63,12.675,41.045,12.293,41.444,11.778C41.394,11.728,41.376,11.695,41.376,11.695C41.376,11.695,-9.172,-12.144,-36.264,-35.452L-41.444,-33.144Z" /></g><g id="Group 100" transform="matrix(1,0,0,1,4237.75,2904.111)"><path fill="#e59d29" fill-opacity="1" d="M-16.601,-246.213L2.921,246.214L16.318,-89.618C16.6,-100.127,-16.601,-246.213,-16.601,-246.213Z" /></g><g><g transform="translate(2750,2000)"><animateTransform repeatCount="indefinite" type="translate" attributeName="transform" dur="7.916s" begin="0s" calcMode="spline" values="2750 2000; 2773.069 2278.131; 2750 2000" keyTimes="0; 0.505; 1" keySplines="0.333 0 0.667 1; 0.333 0 0.667 1" fill="freeze" /><g transform="rotate(0)"><animateTransform repeatCount="indefinite" type="rotate" attributeName="transform" dur="7.916s" begin="0s" calcMode="spline" values="0; -11; 0" keyTimes="0; 0.505; 1" keySplines="0.333 0 0.667 1; 0.333 0 0.667 1" fill="freeze" /><g id="Group 134" transform="translate(-2750,-2000)"><g id="Group 99" transform="matrix(1,0,0,1,4232.079,1931.763)"><path fill="#fdc8aa" fill-opacity="1" d="M74.605,16.197C62.043,76.891,16.823,118.842,-26.398,109.897C-69.62,100.951,-87.167,41.445,-74.606,-19.249C-62.043,-79.943,-24.129,-118.842,19.091,-109.896C62.312,-100.951,87.167,-44.497,74.605,16.197Z" /></g><g id="Group 134" transform="matrix(1,0,0,1,0,0)"><g id="Group 98" transform="matrix(1,0,0,1,4293.466,1877.876)"><path fill="#1f3a6f" fill-opacity="1" d="M23.902,42.667C6.586,52.368,-18.154,41.129,-31.354,17.565C-44.555,-5.999,-41.22,-32.965,-23.903,-42.667C-6.586,-52.368,18.153,-41.129,31.354,-17.565C44.555,5.999,41.218,32.966,23.902,42.667Z" /></g><g id="Group 97" transform="matrix(1,0,0,1,4178.482,1842.042)"><path fill="#1f3a6f" fill-opacity="1" d="M65.791,-7.211C69.356,25.318,42.79,54.915,6.454,58.898C-29.881,62.88,-62.227,39.739,-65.792,7.21C-69.356,-25.319,-42.791,-54.917,-6.455,-58.899C29.88,-62.881,62.227,-39.74,65.791,-7.211Z" /></g><g id="Group 96" transform="matrix(1,0,0,1,4250.065,1836.371)"><path fill="#1f3a6f" fill-opacity="1" d="M37.259,2.585C35.83,23.163,17.991,38.688,-2.587,37.26C-23.165,35.832,-38.688,17.993,-37.261,-2.585C-35.833,-23.163,-17.993,-38.688,2.584,-37.26C23.162,-35.832,38.687,-17.993,37.259,2.585Z" /></g></g><g id="Group 135" transform="matrix(1,0,0,1,0,0)"><g id="Group 95" transform="matrix(1,0,0,1,4319.292,1932.636)"><path fill="#fdc8aa" fill-opacity="1" d="M-31.958,-7.391C-31.958,-7.391,-7.361,-40.088,12.298,-24.561C31.957,-9.035,7.229,40.089,-23.34,38.467L-31.958,-7.391Z" /></g><g id="Group 94" transform="matrix(1,0,0,1,4313.998,1935.471)"><path fill="#efa37d" fill-opacity="1" d="M-11.899,-7.865C-11.899,-7.865,8.247,-18.775,10.073,-7.785C11.899,3.203,-1.771,18.376,-5.479,18.575C-9.187,18.775,3.19,1.257,1.168,-0.179C-0.854,-1.615,-10.505,2.964,-11.899,-7.865Z" /></g></g></g></g></g></g><g id="Group 93" transform="matrix(1,0,0,1,4146.521,2150.821)"><path fill="#e59d29" fill-opacity="1" d="M-17.979,-15.825L-28.147,6.378L-4.491,-0.262L28.147,24.539L15.43,-24.54L-17.979,-15.825Z" /></g><g id="Group 92" transform="matrix(1,0,0,1,4120.325,2392.186)"><path fill="#e59d29" fill-opacity="1" d="M-25.872,-12.633C-25.225,-20.735,-24.793,-24.802,-24.793,-24.802L-21.789,-32.371L-1.868,-32.371L28.362,-18.344L-28.362,32.371C-27.964,19.987,-27.499,9.878,-26.968,2.175C-26.586,-3.736,-26.205,-8.665,-25.872,-12.633Z" /></g><g id="Group 91" transform="matrix(1,0,0,1,4147.938,2119.609)"><path fill="#ffffff" fill-opacity="1" d="M28.888,-56.857C28.888,-56.857,27.555,56.857,26.725,55.75C25.895,54.644,-2.604,17.846,-2.604,17.846C-2.604,17.846,-28.334,20.89,-28.611,19.783C-28.887,18.676,0.39,-38.596,28.888,-56.857Z" /></g><g id="Group 90" transform="matrix(1,0,0,1,4160.98,2337.395)"><path fill="#efa37d" fill-opacity="1" d="M-54.525,3.113L-38.472,19.747C-38.472,19.747,-28.644,26.504,-12.293,36.447L54.525,-22.27L47.437,-23.698L28.197,-36.447C7.695,-27.034,-29.657,-9.106,-54.525,3.113Z" /></g><g id="Group 89" transform="matrix(1,0,0,1,4146.994,2325.6)"><path fill="#fdc8aa" fill-opacity="1" d="M-158.819,40.672C-152.262,62.386,-138.898,73.492,-126.314,79.152C-111.307,85.926,-97.396,84.946,-97.396,84.946L-17.979,36.506C-17.647,36.307,-17.464,36.207,-17.464,36.207L61.423,-11.902L98.061,-4.548L159.368,7.736L173.196,-34.596C173.196,-34.596,172.449,-35.392,171.037,-36.77C160.961,-46.548,116.67,-85.925,63.947,-77.193C3.868,-67.232,-120.073,-34.596,-120.073,-34.596C-120.073,-34.596,-173.195,-6.922,-158.819,40.672Z" /></g><g id="Group 88" transform="matrix(1,0,0,1,4282.622,2311.082)"><path fill="#efa37d" fill-opacity="1" d="M-37.567,9.969L23.74,22.254L37.567,-20.078C37.567,-20.078,36.821,-20.876,35.41,-22.254L18.245,14.086L-37.567,9.969Z" /></g><g id="Group 87" transform="matrix(1,0,0,1,4006.453,2415.335)"><path fill="#e59d29" fill-opacity="1" d="M-43.942,-14.351C-24.851,16.31,9.728,18.402,43.145,-4.789L43.942,-18.402C12.333,-8.143,-21.747,-2.498,-43.942,-14.351Z" /></g><g id="Group 86" transform="matrix(1,0,0,1,4349.855,2393.879)"><path fill="#efa37d" fill-opacity="1" d="M13.679,60.36C19.656,60.493,25.497,60.327,31.208,59.812C31.208,59.812,43.445,25.432,-43.445,-60.494C-41.601,-58.418,20.95,12.085,13.679,60.36Z" /></g><g id="Group 85" transform="matrix(1,0,0,1,4074.848,2386.815)"><path fill="#efa37d" fill-opacity="1" d="M-54.168,17.937C-39.161,24.71,-25.25,23.73,-25.25,23.73L54.168,-24.709C48.391,-21.44,-5.246,8.475,-54.168,17.937Z" /></g><g><g transform="translate(2750,1995)"><animateTransform repeatCount="indefinite" type="translate" attributeName="transform" dur="7.916s" begin="0s" calcMode="spline" values="2750 1995; 2603.009 1571.319; 2750 1995" keyTimes="0; 0.505; 1" keySplines="0.333 0 0.667 1; 0.333 0 0.667 1" fill="freeze" /><g transform="rotate(0)"><animateTransform repeatCount="indefinite" type="rotate" attributeName="transform" dur="7.916s" begin="0s" calcMode="spline" values="0; -16; 0" keyTimes="0; 0.505; 1" keySplines="0.333 0 0.667 1; 0.333 0 0.667 1" fill="freeze" /><g id="Group 132" transform="translate(-2750,-1995)"><g id="Group 60" transform="matrix(1,0,0,1,1360.944,2385.014)"><path fill="#fdc8aa" fill-opacity="1" d="M62.369,10.701C53.161,24.128,30.604,40.511,16.691,39.777C-5.021,38.579,-48.519,12.096,-48.519,12.096L-49.371,11.871L-54.94,10.649L-68.458,7.717C-64.79,-4.621,-57.355,-28.157,-53.461,-40.511C-51.713,-39.864,-50.02,-39.237,-48.383,-38.626C-48.051,-38.515,-47.703,-38.367,-47.371,-38.256C-34.157,-33.43,-24.55,-29.627,-21.122,-28.785C-14.369,-27.229,13.981,-35.869,30.581,-37.242C37.936,-37.848,43.001,-37.01,42.964,-33.309C42.998,-29.552,40.644,-27.641,37.348,-26.351C29.967,-23.453,17.9,-23.628,17.875,-13.355C17.886,-1.779,31.976,-7.003,47.708,-7.104C52.132,-7.155,56.755,-6.773,61.229,-5.488C68.457,-3.403,67.548,3.197,62.369,10.701Z" /></g><g id="Group 52" transform="matrix(1,0,0,1,1171.538,2290.366)"><path fill="#1a71d8" fill-opacity="1" d="M-37.548,-6.13L-145.419,-123.282L-161.154,10.224L-91.149,71.512L138.577,123.282L161.154,67.912L-37.548,-6.13Z" /></g></g></g></g></g><g id="Group 84" transform="matrix(1,0,0,1,4273.143,2118.346)"><path fill="#e59d29" fill-opacity="1" d="M-98.451,57.023C-62.709,70.386,0.142,31.192,0.142,31.192L45.063,63.547L98.451,-49.156C92.226,-52.16,86.166,-54.783,80.39,-57.04C56.435,-66.487,37.708,-69.972,35.617,-70.354L35.402,-70.387L35.402,-70.371C34.754,-68.843,-7.196,29.002,-98.451,57.023Z" /></g><g id="Group 83" transform="matrix(1,0,0,1,4276.621,2113.315)"><path fill="#ffffff" fill-opacity="1" d="M-101.953,62.046C-66.411,65.366,-3.328,27.185,-3.328,27.185L40.945,46.275L94.965,-44.133L101.953,-55.819L32.131,-65.332L31.932,-65.365L31.915,-65.349C31.268,-63.821,-10.682,34.04,-101.953,62.046Z" /></g><g id="Group 82" transform="matrix(1,0,0,1,4365.829,2526.125)"><path fill="#f4b545" fill-opacity="1" d="M56.897,-9.138C52.478,-9.408,-70.729,-22.203,-70.729,-22.203L-58.823,14.283L70.729,22.203L56.897,-9.138Z" /></g><g id="Group 81" transform="matrix(1,0,0,1,4130.318,2525.553)"><path fill="#f4b545" fill-opacity="1" d="M57.369,-25.805L-44.73,-8.118L-57.368,25.805L53.568,6.696L57.369,-25.805Z" /></g><g id="Group 80" transform="matrix(1,0,0,1,4348.162,2532.363)"><path fill="#e59d29" fill-opacity="1" d="M-53.061,-28.441L-41.155,8.044L57.762,14.092L57.762,28.442L-57.762,25.538L-53.061,-28.441Z" /></g><g id="Group 79" transform="matrix(1,0,0,1,4140.06,2533.799)"><path fill="#e59d29" fill-opacity="1" d="M47.626,-34.051L48.993,14.278L-48.759,34.051L-48.992,14.438L43.826,-1.55L47.626,-34.051Z" /></g><g id="Group 78" transform="matrix(1,0,0,1,4145.718,3300.921)"><path fill="#1f3a6f" fill-opacity="1" d="M106.625,29.055C106.685,31.505,106.597,33.868,106.389,36.057C105.232,47.653,100.041,55.574,88.825,56.973C75.475,58.593,-109.208,62.401,-116.24,53.648C-118.524,50.847,-119.234,46.383,-118.493,41.439C-116.95,31.111,-108.852,18.771,-94.76,15.621C-89.153,14.352,-80.163,9.845,-69.779,3.631C-41.833,-13.085,-3.828,-41.924,5.398,-51.9C15.07,-62.402,23.881,-41.924,32.812,-24.464C35.541,-19.169,38.241,-14.135,41,-10.328C52.866,6.082,79.184,-5.427,79.184,-5.427C119.235,-28.926,106.269,13.739,106.625,29.055Z" /></g><g id="Group 77" transform="matrix(1,0,0,1,4395.59,3305.673)"><path fill="#1f3a6f" fill-opacity="1" d="M17.133,62.216C-48.08,61.931,-75.141,64.655,-63.53,40.131C-63.364,39.799,-63.198,39.467,-63.032,39.112C-51.256,15.628,-49.464,6.499,-50.079,-13.856C-50.127,-15.705,-50.269,-17.6,-50.529,-19.638C-53.539,-43.974,-29.336,-47.996,-29.336,-47.996C-29.336,-47.996,24.313,-64.655,38.673,-35.178C40.853,-30.722,42.654,-26.552,44.17,-22.641C52.82,-0.628,53.175,13.614,63.625,27.618C65.095,29.585,66.516,31.67,67.725,33.827C75.142,47.073,73.838,62.429,17.133,62.216Z" /></g><g id="Group 76" transform="matrix(1,0,0,1,2553.185,1781.06)" opacity="0.12"><path fill="#003889" fill-opacity="1" d="M1155.689,-24.331L1140.21,-190.078C1137.11,-223.283,1107.677,-247.687,1074.472,-244.587L-1101.177,-41.414C-1134.382,-38.312,-1158.788,-8.881,-1155.686,24.325L-1140.208,190.071C-1137.108,223.277,-1107.675,247.681,-1074.469,244.581L1101.179,41.407C1134.385,38.306,1158.79,8.875,1155.689,-24.331Z" /></g><g id="Group 75" transform="matrix(1,0,0,1,2494.856,1728.243)"><path fill="#f4b545" fill-opacity="1" d="M1101.911,9.385L539.218,78.485L530.095,79.612L489.016,84.654L479.893,85.763L-1066.903,275.717C-1100.017,279.781,-1130.144,256.231,-1134.208,223.133L-1154.494,57.906C-1158.558,24.807,-1135.024,-5.321,-1101.926,-9.385L479.893,-203.629L489.016,-204.755L530.095,-209.799L539.218,-210.925L1066.904,-275.717C1100.002,-279.781,1130.13,-256.23,1134.193,-223.132L1154.496,-57.905C1158.559,-24.807,1135.01,5.321,1101.911,9.385Z" /></g><g id="Group 74" transform="matrix(1,0,0,1,1495.466,1850.966)"><path fill="#ffffff" fill-opacity="1" d="M51.023,-6.266C54.483,21.914,34.445,47.563,6.265,51.023C-21.915,54.484,-47.563,34.444,-51.024,6.265C-54.484,-21.914,-34.445,-47.563,-6.266,-51.024C21.914,-54.484,47.563,-34.445,51.023,-6.266Z" /></g><g id="Group 73" transform="matrix(1,0,0,1,1648.536,1832.169)"><path fill="#ffffff" fill-opacity="1" d="M51.023,-6.266C54.483,21.914,34.444,47.563,6.265,51.023C-21.915,54.484,-47.563,34.444,-51.024,6.265C-54.484,-21.914,-34.445,-47.563,-6.266,-51.024C21.914,-54.484,47.563,-34.445,51.023,-6.266Z" /></g><g id="Group 72" transform="matrix(1,0,0,1,1801.606,1813.372)"><path fill="#ffffff" fill-opacity="1" d="M51.023,-6.266C54.483,21.914,34.444,47.564,6.265,51.024C-21.915,54.484,-47.563,34.445,-51.024,6.266C-54.484,-21.913,-34.445,-47.563,-6.266,-51.024C21.914,-54.484,47.563,-34.445,51.023,-6.266Z" /></g><g id="Group 71" transform="matrix(1,0,0,1,3508.397,2952.425)"><path fill="#acc6e5" fill-opacity="1" d="M-185.262,297.344L-171.404,164.239L145.91,164.239L132.052,297.344L-185.262,297.344ZM162.654,3.417L148.796,136.524L-168.519,136.524L-154.66,3.417L162.654,3.417ZM-151.775,-24.298L-137.916,-157.403L179.397,-157.403L165.539,-24.298L-151.775,-24.298ZM190.321,-262.329L182.283,-185.118L-135.032,-185.118L-126.992,-262.329C-117.885,-349.812,-39.302,-420.985,48.181,-420.985C135.666,-420.985,199.429,-349.812,190.321,-262.329ZM-154.707,-262.329L-228.735,448.7L-201.02,448.7L-188.148,325.059L129.167,325.059L116.294,448.7L144.009,448.7L218.036,-262.329C228.735,-365.094,153.835,-448.7,51.069,-448.7C-51.698,-448.7,-144.008,-365.094,-154.707,-262.329Z" /></g><g id="Group 70" transform="matrix(1,0,0,1,3612.957,2952.425)"><path fill="#1f3a6f" fill-opacity="1" d="M-132.051,297.344L-145.909,164.239L171.405,164.239L185.262,297.344L-132.051,297.344ZM154.661,3.417L168.519,136.524L-148.795,136.524L-162.653,3.417L154.661,3.417ZM-165.538,-24.298L-179.397,-157.403L137.918,-157.403L151.776,-24.298L-165.538,-24.298ZM-48.181,-420.985C39.303,-420.985,117.886,-349.812,126.994,-262.329L135.032,-185.118L-182.281,-185.118L-190.321,-262.329C-199.429,-349.812,-135.664,-420.985,-48.181,-420.985ZM-51.068,-448.7C-153.833,-448.7,-228.735,-365.094,-218.035,-262.329L-144.008,448.7L-116.293,448.7L-129.166,325.059L188.148,325.059L201.021,448.7L228.735,448.7L154.708,-262.329C144.009,-365.094,51.698,-448.7,-51.068,-448.7Z" /></g><g opacity="0.1"><g id="Group 69" transform="translate(2349.321,2406.272)"><animateTransform repeatCount="indefinite" type="translate" attributeName="transform" dur="7.916s" begin="0s" calcMode="spline" values="2349.321 2406.272; 2349.321 2276.272; 2349.321 2406.272" keyTimes="0; 0.505; 1" keySplines="0.333 0 0.667 1; 0.333 0 0.667 1" fill="freeze" /><path fill="#003889" fill-opacity="1" d="M-928.639,-214.207L-915.879,263.478L928.643,214.206L915.883,-263.478L-928.639,-214.207Z" /></g></g><g id="Group 66" transform="matrix(1,0,0,1,933.202,3326.472)"><path fill="#072542" fill-opacity="1" d="M92.74,88.692L-4.9,84.825C-6.689,84.754,-8.384,84.007,-9.642,82.734L-98.728,-7.375C-101.39,-10.069,-101.454,-14.384,-98.871,-17.154L-61.326,-57.425L-34.791,-85.898C-32.35,-88.516,-28.337,-88.894,-25.451,-86.778L17.588,-55.218C19.224,-54.018,20.265,-52.172,20.445,-50.152L27.19,25.529C27.416,28.075,29.002,30.299,31.334,31.345L88.799,57.106C90.486,57.862,91.809,59.249,92.485,60.968L99.591,79.056C101.454,83.799,97.832,88.894,92.74,88.692Z" /></g><g id="Group 65" transform="matrix(1,0,0,1,939.524,2538.641)"><path fill="#1a71d8" fill-opacity="1" d="M-83.892,44.33L85.995,51.501L-31.828,-51.501L-83.892,44.33Z" /></g><g id="Group 64" transform="matrix(1,0,0,1,1153.343,2902.053)"><path fill="#1f3a6f" fill-opacity="1" d="M274.058,410.167L188.223,434.691L11.649,113.424L-183.318,391.774L-274.058,331.689L-139.175,50.888L-223.293,-278.043L-238.032,-335.663L-186.666,-362.136L-179.787,-369.125L-147.366,-402.1L-133.118,-416.593L-118.636,-431.319L-15.328,-434.691L-11.98,-424.931L3.188,-380.615L274.058,410.167Z" /></g><g id="Group 63" transform="matrix(1,0,0,1,961.312,2576.831)"><path fill="#072542" fill-opacity="1" d="M46.001,-47.178L-31.263,47.178L-46.002,-10.441L5.364,-36.914L12.243,-43.904L46.001,-47.178Z" /></g><g id="Group 62" transform="matrix(1,0,0,1,1076.183,2499.281)"><path fill="#072542" fill-opacity="1" d="M80.348,22.157C42.213,18.932,-55.823,10.705,-62.395,10.545L-70.206,0.674L-80.347,-12.14L-55.958,-13.82L65.18,-22.157L80.348,22.157Z" /></g><g id="Group 61" transform="matrix(1,0,0,1,1457.651,3358.019)"><path fill="#072542" fill-opacity="1" d="M98.828,9.051L-58.432,45.745C-65.679,47.436,-73.155,44.037,-76.646,37.465L-98.021,-2.777L-112.417,-29.864L-41.088,-47.436L-25.355,-29.864L95.714,-24.361C103.695,-23.999,110.253,-17.939,111.245,-10.011L111.376,-8.956C112.416,-0.627,107.002,7.144,98.828,9.051Z" /></g><g id="Group 129" transform="matrix(1,0,0,1,930.939,3348.649)"><path fill="#072542" fill-opacity="1" d="M96.486,50.017L-51.072,-15.586C-57.872,-18.609,-61.783,-25.83,-60.603,-33.177L-53.374,-78.166L-48.515,-108.454L18.974,-79.439L20.92,-55.934L114.159,21.491C120.306,26.594,121.88,35.384,117.889,42.305L117.358,43.226C113.163,50.496,104.155,53.427,96.486,50.017Z" /></g><g id="Group 59" transform="matrix(1,0,0,1,2294.027,2336.663)"><path fill="#3b82f4" fill-opacity="1" d="M935.933,179.662L-905.495,297.219L-921.424,47.646L-924.607,-2.31L-935.933,-179.663L905.496,-297.219L935.933,179.662Z" /></g><g><g transform="translate(2750.107,2000.977)"><animateTransform repeatCount="indefinite" type="translate" attributeName="transform" dur="7.916s" begin="0s" calcMode="spline" values="2750.107 2000.977; 2750.107 1880.977; 2750.107 2000.977" keyTimes="0; 0.505; 1" keySplines="0.333 0 0.667 1; 0.333 0 0.667 1" fill="freeze" /><g id="Group 131" transform="translate(-2750.107,-2000.977)"><g id="Group 58" transform="matrix(1,0,0,1,1649.08,2375.308)"><path fill="#ffffff" fill-opacity="1" d="M102.99,-118.527L79.57,22.449C78.558,29.205,77.742,34.069,77.155,37.006L29.108,-113.81L-20.082,-110.661L-47.582,44.97C-48.561,41.903,-49.312,39.601,-49.867,38.083C-51.238,33.921,-52.005,31.523,-52.168,30.854L-92.414,-106.042L-146.826,-102.565L-73.727,121.318L-21.747,117.988L4.758,-34.901L51.793,113.304L104.198,109.958L146.826,-121.318L102.99,-118.527Z" /></g><g id="Group 57" transform="matrix(1,0,0,1,1947.246,2356.262)"><path fill="#ffffff" fill-opacity="1" d="M102.981,-118.51L79.561,22.466C78.549,29.221,77.75,34.069,77.162,37.007L29.1,-113.793L-20.091,-110.66L-47.573,44.971C-48.553,41.919,-49.321,39.618,-49.859,38.084C-51.247,33.938,-52.014,31.523,-52.161,30.87L-92.423,-106.041L-146.835,-102.565L-73.736,121.318L-21.755,118.005L4.749,-34.885L51.8,113.304L104.189,109.959L146.834,-121.318L102.981,-118.51Z" /></g><g id="Group 56" transform="matrix(1,0,0,1,2245.624,2339.187)"><path fill="#ffffff" fill-opacity="1" d="M102.974,-118.51L79.571,22.449C78.543,29.221,77.743,34.07,77.156,37.008L29.092,-113.793L-20.081,-110.659L-47.581,44.97C-48.561,41.902,-49.327,39.618,-49.866,38.084C-51.254,33.938,-52.021,31.523,-52.168,30.87L-92.413,-106.041L-146.826,-102.566L-73.743,121.318L-21.762,118.006L4.758,-34.885L51.794,113.304L104.198,109.959L146.827,-121.318L102.974,-118.51Z" /></g><g opacity="0"><animate repeatCount="indefinite" attributeName="opacity" dur="7.5s" begin="0s" calcMode="spline" values="0; 1; 1; 0" keyTimes="0; 0.133; 0.867; 1" keySplines="0.333 0 0.667 1; 0.333 0 0.667 1; 0.333 0 0.667 1" fill="freeze" /><g id="Group 55" transform="translate(2440.228,2415.538)"><path fill="#ffffff" fill-opacity="1" d="M24.113,-27.41L-27.41,-24.13L-24.114,27.41L27.41,24.113L24.113,-27.41Z" /></g></g><g opacity="0"><animate repeatCount="indefinite" attributeName="opacity" dur="5.333s" begin="0.5s" calcMode="spline" values="0; 1; 1; 0" keyTimes="0; 0.219; 0.781; 1" keySplines="0.333 0 0.667 1; 0.333 0 0.667 1; 0.333 0 0.667 1" fill="freeze" /><g id="Group 54" transform="translate(2528.112,2409.924)"><path fill="#ffffff" fill-opacity="1" d="M24.113,-27.41L-27.41,-24.113L-24.13,27.41L27.41,24.113L24.113,-27.41Z" /></g></g><g opacity="0"><animate repeatCount="indefinite" attributeName="opacity" dur="2.833s" begin="1.0833333333333333s" calcMode="spline" values="0; 1; 0" keyTimes="0; 0.529; 1" keySplines="0.333 0 0.667 1; 0.333 0 0.667 1" fill="freeze" /><g id="Group 53" transform="translate(2615.997,2404.309)"><path fill="#ffffff" fill-opacity="1" d="M24.114,-27.41L-27.409,-24.113L-24.129,27.41L27.409,24.129L24.114,-27.41Z" /></g></g></g></g></g><g id="Group 50" transform="matrix(1,0,0,1,1428.125,2340.789)"><path fill="#fdc8aa" fill-opacity="1" d="M62.94,4.891C55.367,19.303,34.883,38.213,20.979,39.114C-0.724,40.465,-47.022,19.254,-47.022,19.254L-47.895,19.132L-53.569,18.571L-67.336,17.24C-65.138,4.558,-60.51,-19.687,-58.088,-32.412C-56.277,-31.973,-54.522,-31.548,-52.825,-31.133C-52.483,-31.061,-52.119,-30.957,-51.777,-30.885C-38.089,-27.638,-28.103,-24.986,-24.599,-24.551C-17.71,-23.796,9.433,-35.696,25.759,-39.004C32.992,-40.464,38.121,-40.225,38.518,-36.546C38.991,-32.818,36.876,-30.645,33.754,-28.978C26.763,-25.237,14.758,-23.998,15.937,-13.792C17.302,-2.297,30.683,-9.134,46.295,-11.075C50.683,-11.645,55.32,-11.806,59.913,-11.054C67.336,-9.831,67.205,-3.168,62.94,4.891Z" /></g><g id="Group 46" transform="matrix(1,0,0,1,947.326,1912.072)"><path fill="#efa37d" fill-opacity="1" d="M-20.534,21.471C-16.236,22.772,-11.877,23.299,-7.535,23.233L-7.517,23.229C11.371,22.944,29.837,11.424,40.026,3.811C35.895,0.117,32.069,-3.339,28.966,-6.109C31.973,-10.038,33.842,-13.289,35.145,-15.578C35.692,-16.536,35.914,-17.638,35.872,-18.765C26.704,-20.534,18.364,-22.048,16.862,-22.419C13.294,-23.298,-25.923,-19.089,-30.724,-18.194C-33.223,-17.727,-39.129,-9.593,-39.599,-0.537C-40.026,7.747,-35.921,16.787,-20.534,21.471Z" /></g><g id="Group 133" transform="matrix(1,0,0,1,0,0)"><g id="Group 49" transform="matrix(1,0,0,1,938.478,2044.213)"><path fill="#fdc8aa" fill-opacity="1" d="M32.046,-10.358L43.04,42.012L-43.04,38.313L-40.073,-22.414L-43.04,-42.012L32.046,-10.358Z" /></g><g id="Group 48" transform="matrix(1,0,0,1,935.913,2032.889)"><path fill="#efa37d" fill-opacity="1" d="M34.611,0.965L40.475,28.898C17.899,30.689,-23.151,-1.052,-37.508,-11.091L-40.475,-30.689L34.611,0.965Z" /></g><g id="Group 47" transform="matrix(1,0,0,1,948.615,1973.574)"><path fill="#fdc8aa" fill-opacity="1" d="M-67.954,22.974C-61.807,30.294,-53.722,37.231,-43.755,43.578C-41.094,45.277,-38.314,46.916,-35.375,48.509C-22.562,55.552,-7.144,61.7,10.796,66.614C69.173,82.629,59.295,8.522,58.831,3.845C58.353,-0.811,84.083,-22.886,76.247,-27.871C71.83,-30.681,53.623,-44.824,39.566,-57.44C35.435,-61.135,31.609,-64.589,28.506,-67.359C24.64,-70.824,21.863,-73.246,21.005,-73.756C6.233,-82.629,-18.494,-75.245,-40.06,-61.789C-64.016,-46.882,-84.083,-24.495,-82.361,-8.573C-81.189,2.297,-76.366,12.989,-67.954,22.974Z" /></g><g id="Group 45" transform="matrix(1,0,0,1,918.744,1922.398)"><path fill="#1f3a6f" fill-opacity="1" d="M-62.173,48.632C-59.209,61.736,-50.794,73.134,-41.775,81.387C-31.83,90.509,-21.148,95.81,-16.25,95.436C-15.514,95.393,-14.724,95.133,-13.883,94.754C-6.616,91.221,3.451,75.37,8.2,65.516C9.729,62.347,10.706,59.802,10.867,58.469C10.993,57.553,10.535,56.596,9.656,55.57C9.324,55.185,8.952,54.789,8.501,54.371C2.661,48.893,-12.097,41.096,-14.869,25.036C-18.422,4.599,15.696,16.432,15.696,16.432C17.854,15.341,19.903,14.251,21.876,13.157L21.894,13.153C41.716,2.218,52.346,-8.323,58.378,-16.183C61.385,-20.112,63.253,-23.363,64.556,-25.652C65.103,-26.61,65.325,-27.712,65.283,-28.839C64.946,-36.33,53.158,-46.561,48.771,-48.032C43.711,-49.729,76.567,-85.646,45.81,-90.738C15.057,-95.811,-30.191,-68.374,-53.379,-41.368C-76.566,-14.362,-68.384,21.026,-62.173,48.632Z" /></g></g><g id="Group 44" transform="matrix(1,0,0,1,1075.808,2382.045)"><path fill="#ffffff" fill-opacity="1" d="M18.397,-89.204L83.694,108.736C85.521,114.328,81.32,120.063,75.438,120.009L-85.522,120.009L-52.723,31.782L-34.535,-120.063L18.397,-89.204Z" /></g><g id="Group 43" transform="matrix(1,0,0,1,1060.701,3019.7)"><path fill="#072542" fill-opacity="1" d="M-36.728,-272.766L30.713,-16.488L-104.286,265.115L-92.732,272.766L104.286,-6.678L-36.728,-272.766Z" /></g><g id="Group 42" transform="matrix(1,0,0,1,1125.343,2324.944)"><path fill="#3b82f4" fill-opacity="1" d="M-136.896,-252.401L-136.896,-252.401C-124.481,-248.953,-113.612,-241.376,-106.081,-230.92L-71.19,-182.479L64.99,-65.594L270.993,-15.319L255.052,42.312L20.845,17.788L-80.929,-52.106L-81.289,49.213C-81.453,95.463,-88.628,141.421,-102.568,185.521L-110.738,211.37L-270.992,260.578L-250.003,-236.736C-249.302,-244.68,-246.581,-251.023,-240.081,-255.191C-239.304,-255.689,-238.477,-256.105,-237.646,-256.506L-237.057,-256.792C-232.233,-259.505,-226.669,-260.577,-221.198,-259.863C-220.601,-259.785,-220.002,-259.707,-219.402,-259.66L-142.747,-253.698C-140.775,-253.369,-138.822,-252.936,-136.896,-252.401Z" /></g><g id="Group 41" transform="matrix(1,0,0,1,2983.594,2109.634)"><path fill="#ffffff" fill-opacity="1" d="M29.376,0C29.376,16.223,16.222,29.377,0,29.377C-15.064,29.377,-27.483,18.034,-29.18,3.428C-29.311,2.301,-29.376,1.159,-29.376,0C-29.376,-5.418,-27.907,-10.51,-25.345,-14.868C-20.236,-23.55,-10.805,-29.377,0,-29.377C7.196,-29.377,13.774,-26.798,18.884,-22.489C23.698,-18.458,27.189,-12.926,28.626,-6.594C29.115,-4.472,29.376,-2.269,29.376,0Z" /></g><g id="Group 39" transform="matrix(1,0,0,1,3002.505,1502.987)"><path fill="#36588e" fill-opacity="1" d="M-4.564,322.231C-4.564,326.211,0.53,329.003,4.564,324.431L4.564,-324.433C0.53,-329.004,-4.564,-326.212,-4.564,-322.232L-4.564,322.231Z" /></g><g id="Group 38" transform="matrix(1,0,0,1,2952.303,1502.987)"><path fill="#36588e" fill-opacity="1" d="M-4.564,322.231C-4.564,326.211,0.53,329.003,4.564,324.431L4.564,-324.433C0.53,-329.004,-4.564,-326.212,-4.564,-322.232L-4.564,322.231Z" /></g><g id="Group 37" transform="matrix(1,0,0,1,2975.503,1194.599)"><path fill="#36588e" fill-opacity="1" d="M90.508,-26.328L-90.507,-26.328L-90.507,26.328L90.508,26.328L90.508,-26.328Z" /></g><g><g transform="translate(2750,2000.25)"><animateTransform repeatCount="indefinite" type="translate" attributeName="transform" dur="7.916s" begin="0s" calcMode="spline" values="2750 2000.25; 2750 1899.25; 2750 2000.25" keyTimes="0; 0.505; 1" keySplines="0.333 0 0.667 1; 0.333 0 0.667 1" fill="freeze" /><g id="Group 130" transform="translate(-2750,-2000.25)"><g id="Group 40" transform="matrix(1,0,0,1,2966.76,2047.957)"><path fill="#36588e" fill-opacity="1" d="M45.46,55.334C32.566,69.745,10.861,76.143,-11.106,65.959C-11.53,65.763,-11.938,65.567,-12.346,65.355C-20.719,61.145,-27.427,54.062,-31.294,45.51C-45.46,14.256,-26.171,-16.345,1.949,-21.648L1.949,-63.935C1.949,-71.034,10.469,-76.143,17.829,-69.615C18.775,-68.798,19.332,-67.607,19.332,-66.366L19.332,-8.43C19.332,-6.111,17.258,-4.447,14.973,-4.773C-8.103,-8.087,-27.084,15.644,-14.86,39.324C-13.31,42.344,-11.122,44.987,-8.511,47.06C-7.254,48.105,-5.9,48.986,-4.465,49.736C11.856,58.158,28.21,51.776,35.718,39.438C40.532,43.47,44.023,49.002,45.46,55.334Z" /></g><g id="Group 36" transform="matrix(1,0,0,1,2977.33,1894.049)"><path fill="#36588e" fill-opacity="1" d="M35.2,104.459C48.117,104.459,59.01,95.204,61.109,82.459L86.785,-73.956C88.769,-86.022,82.225,-98.388,69.365,-103.201C66.929,-104.112,64.315,-104.459,61.715,-104.459L-61.699,-104.459C-64.419,-104.459,-67.153,-104.075,-69.679,-103.065C-82.468,-97.949,-88.77,-85.497,-86.549,-73.451L-57.758,82.956C-55.469,95.419,-44.609,104.459,-31.938,104.459L35.2,104.459Z" /></g></g></g></g><g id="Group 35" transform="matrix(1,0,0,1,2098.579,2902.054)"><path fill="#ecf3fe" fill-opacity="1" d="M165.888,-153.733L165.888,153.823C165.888,160.475,160.474,165.888,153.734,165.888L-153.735,165.888C-160.388,165.888,-165.889,160.475,-165.889,153.823L-165.889,-153.733C-165.889,-160.386,-160.388,-165.887,-153.735,-165.887L153.734,-165.887C160.474,-165.887,165.888,-160.386,165.888,-153.733Z" /></g><g id="Group 34" transform="matrix(1,0,0,1,2098.579,2958.616)"><path fill="#c4d7f2" fill-opacity="1" d="M165.888,-56.561L165.888,97.26C165.888,103.913,160.474,109.326,153.734,109.326L-153.735,109.326C-160.42,109.326,-165.889,103.856,-165.889,97.171L-165.889,70.825L-66.791,-22.23C-55.447,-32.882,-37.758,-32.82,-26.49,-22.087L-13.589,-9.801C-6.375,-2.93,5.229,-3.94,11.148,-11.954L71.344,-93.449C81.251,-106.861,100.332,-109.326,113.322,-98.871L165.888,-56.561Z" /></g><g id="Group 33" transform="matrix(1,0,0,1,2071.966,2833.525)"><path fill="#ffffff" fill-opacity="1" d="M39.919,0C39.919,22.047,22.046,39.919,0,39.919C-22.047,39.919,-39.92,22.047,-39.92,0C-39.92,-22.047,-22.047,-39.919,0,-39.919C22.046,-39.919,39.919,-22.047,39.919,0Z" /></g><g id="Group 32" transform="matrix(1,0,0,1,2983.506,2902.053)"><path fill="#c4d7f2" fill-opacity="1" d="M-27.603,-147.996L-71.157,-147.996C-76.741,-147.996,-81.267,-152.521,-81.267,-158.105C-81.267,-163.689,-76.741,-168.217,-71.157,-168.217L-27.603,-168.217C-22.019,-168.217,-17.493,-163.689,-17.493,-158.105C-17.493,-152.521,-22.019,-147.996,-27.603,-147.996ZM59.503,-147.996L15.951,-147.996C10.367,-147.996,5.84,-152.521,5.84,-158.105C5.84,-163.689,10.367,-168.217,15.951,-168.217L59.503,-168.217C65.087,-168.217,69.614,-163.689,69.614,-158.105C69.614,-152.521,65.087,-147.996,59.503,-147.996ZM-156.311,-142.436C-158.124,-142.436,-159.957,-142.924,-161.613,-143.945C-166.364,-146.879,-167.837,-153.108,-164.905,-157.86C-160.96,-164.248,-153.883,-168.217,-146.435,-168.217L-114.71,-168.217C-109.126,-168.217,-104.6,-163.689,-104.6,-158.105C-104.6,-152.521,-109.126,-147.996,-114.71,-147.996L-146.435,-147.996C-147.021,-147.996,-147.472,-147.604,-147.698,-147.237C-149.61,-144.142,-152.921,-142.437,-156.311,-142.436ZM158.195,-129.124C152.611,-129.124,148.084,-133.65,148.084,-139.234L148.084,-146.521C148.084,-147.32,147.41,-147.996,146.611,-147.996L103.057,-147.996C97.473,-147.996,92.947,-152.521,92.947,-158.105C92.947,-163.689,97.473,-168.217,103.057,-168.217L146.611,-168.217C158.574,-168.217,168.305,-158.484,168.305,-146.521L168.305,-139.234C168.305,-133.65,163.779,-129.124,158.195,-129.124ZM-158.019,-55.655C-163.603,-55.655,-168.129,-60.182,-168.129,-65.766L-168.129,-109.319C-168.129,-114.903,-163.603,-119.43,-158.019,-119.43C-152.435,-119.43,-147.909,-114.903,-147.909,-109.319L-147.909,-65.766C-147.909,-60.182,-152.435,-55.655,-158.019,-55.655ZM158.195,-42.017C152.611,-42.017,148.084,-46.542,148.084,-52.126L148.084,-95.681C148.084,-101.265,152.611,-105.791,158.195,-105.791C163.779,-105.791,168.305,-101.265,168.305,-95.681L168.305,-52.126C168.305,-46.542,163.779,-42.017,158.195,-42.017ZM-158.019,31.452C-163.603,31.452,-168.129,26.926,-168.129,21.342L-168.129,-22.212C-168.129,-27.796,-163.603,-32.322,-158.019,-32.322C-152.435,-32.322,-147.909,-27.796,-147.909,-22.212L-147.909,21.342C-147.909,26.926,-152.435,31.452,-158.019,31.452ZM158.195,45.09C152.611,45.09,148.084,40.564,148.084,34.98L148.084,-8.573C148.084,-14.157,152.611,-18.684,158.195,-18.684C163.779,-18.684,168.305,-14.157,168.305,-8.573L168.305,34.98C168.305,40.564,163.779,45.09,158.195,45.09ZM-158.019,118.559C-163.603,118.559,-168.129,114.032,-168.129,108.448L-168.129,64.896C-168.129,59.312,-163.603,54.785,-158.019,54.785C-152.435,54.785,-147.909,59.312,-147.909,64.896L-147.909,108.448C-147.909,114.032,-152.435,118.559,-158.019,118.559ZM158.195,132.197C152.611,132.197,148.084,127.671,148.084,122.087L148.084,78.533C148.084,72.949,152.611,68.423,158.195,68.423C163.779,68.423,168.305,72.949,168.305,78.533L168.305,122.087C168.305,127.671,163.779,132.197,158.195,132.197ZM-148.853,168.077C-148.847,168.078,-148.84,168.078,-148.834,168.079C-148.841,168.078,-148.846,168.078,-148.853,168.077ZM-115.604,168.216L-146.435,168.216C-147.179,168.216,-147.924,168.178,-148.651,168.104C-148.772,168.091,-148.909,168.074,-149.043,168.055C-156.205,167.187,-162.436,162.855,-165.748,156.432C-168.305,151.468,-166.356,145.37,-161.393,142.812C-156.431,140.254,-150.332,142.204,-147.773,147.167C-147.601,147.502,-147.189,147.916,-146.597,147.983C-146.563,147.985,-146.528,147.99,-146.491,147.994C-146.477,147.994,-146.456,147.995,-146.435,147.995L-115.604,147.995C-110.02,147.995,-105.494,152.522,-105.494,158.106C-105.494,163.69,-110.02,168.216,-115.604,168.216ZM-28.497,168.216L-72.05,168.216C-77.634,168.216,-82.161,163.69,-82.161,158.106C-82.161,152.522,-77.634,147.995,-72.05,147.995L-28.497,147.995C-22.913,147.995,-18.386,152.522,-18.386,158.106C-18.386,163.69,-22.913,168.216,-28.497,168.216ZM58.61,168.216L15.057,168.216C9.473,168.216,4.947,163.69,4.947,158.106C4.947,152.522,9.473,147.995,15.057,147.995L58.61,147.995C64.194,147.995,68.72,152.522,68.72,158.106C68.72,163.69,64.194,168.216,58.61,168.216ZM145.717,168.216L102.164,168.216C96.58,168.216,92.053,163.69,92.053,158.106C92.053,152.522,96.58,147.995,102.164,147.995L145.717,147.995C151.301,147.995,155.828,152.522,155.828,158.106C155.828,163.69,151.301,168.216,145.717,168.216Z" /></g><g id="Group 31" transform="matrix(1,0,0,1,2444.748,2789.562)"><path fill="#33da82" fill-opacity="1" d="M-100.52,23.937L-98.357,23.937L-98.357,-23.937L-100.52,-23.937L-100.52,23.937Z" /></g><g id="Group 30" transform="matrix(1,0,0,1,2527.548,2902.053)"><path fill="#ecf3fe" fill-opacity="1" d="M-181.218,23.937L-181.156,23.937L-181.156,-23.937L-181.218,-23.937L-181.218,23.937Z" /></g><g id="Group 29" transform="matrix(1,0,0,1,2530.045,3016.64)"><path fill="#ecf3fe" fill-opacity="1" d="M-178.434,23.936L-181.156,23.936L-181.156,-23.937L-178.434,-23.937L-178.434,23.936Z" /></g><g id="Group 28" transform="matrix(1,0,0,1,1949.065,3220.277)"><path fill="#003889" fill-opacity="1" d="M431.28,-162.512L403.509,-162.514L403.51,-162.511L368.131,-162.511L372.343,-193.205C372.636,-195.336,371.106,-197.064,368.926,-197.064L350.227,-197.065C348.047,-197.065,346.043,-195.337,345.751,-193.207L341.538,-162.511L311.793,-162.511L311.788,-162.511L311.788,-162.521L229.899,-162.526L207.785,-162.53L115.932,-162.53L115.932,-162.533L11.928,-162.54L11.929,-162.53L-79.928,-162.549L-122.405,-162.549L-183.928,-162.554L-183.928,-162.549L-183.937,-162.549L-275.639,-162.569L-317.682,-162.569L-313.47,-193.251C-313.178,-195.382,-314.708,-197.11,-316.887,-197.11L-335.587,-197.111C-337.767,-197.111,-339.771,-195.383,-340.064,-193.253L-344.275,-162.569L-411.961,-162.569C-424.226,-162.569,-435.607,-152.759,-437.251,-140.77L-444.63,-86.979L-446.153,-75.878L-450.586,-43.56C-452.2,-31.796,-443.753,-22.26,-431.718,-22.26L-411.262,-22.26L-411.263,-22.262L-363.532,-22.262L-387.438,151.911L-419.922,151.909C-425.171,151.909,-429.997,156.068,-430.701,161.199L-434.348,187.768C-435.052,192.899,-431.368,197.058,-426.119,197.058L-335.956,197.065C-330.707,197.065,-325.881,192.906,-325.178,187.776L-321.531,161.206C-320.826,156.075,-324.511,151.916,-329.76,151.915L-360.845,151.913L-336.939,-22.262L-300.177,-22.262L-264.064,-22.26L-264.065,-22.262L-264.054,-22.262L-87.403,-22.242L23.65,-22.242L23.65,-22.241L127.654,-22.234L127.653,-22.242L219.37,-22.223L276.498,-22.223L322.283,-22.221L298.377,151.957L267.292,151.955C262.043,151.955,257.217,156.114,256.513,161.245L252.866,187.814C252.162,192.945,255.846,197.104,261.095,197.105L351.258,197.111C356.507,197.111,361.333,192.952,362.037,187.822L365.683,161.252C366.388,156.121,362.704,151.962,357.455,151.961L324.97,151.959L348.876,-22.223L412.023,-22.223C413.089,-22.223,414.034,-22.339,415.138,-22.474C421.817,-23.342,427.991,-27.066,432.158,-32.299C432.711,-32.992,433.24,-33.702,433.718,-34.446C435.573,-37.335,436.84,-40.581,437.31,-44.002L437.31,-44.009L450.584,-140.717C452.232,-152.723,443.562,-162.511,431.28,-162.512Z" /></g><g id="Group 27" transform="matrix(1,0,0,1,2246.78,3196.874)"><path fill="#e59d29" fill-opacity="1" d="M9.337,182.723L-9.363,182.721C-11.542,182.721,-13.309,180.953,-13.309,178.774L-13.285,-178.776C-13.284,-180.955,-11.517,-182.722,-9.338,-182.722L9.362,-182.721C11.542,-182.721,13.309,-180.954,13.309,-178.774L13.284,178.776C13.284,180.955,11.517,182.723,9.337,182.723Z" /></g><g id="Group 26" transform="matrix(1,0,0,1,1560.959,3196.827)"><path fill="#e59d29" fill-opacity="1" d="M9.338,182.721L-9.362,182.72C-11.541,182.72,-13.308,180.952,-13.308,178.773L-13.284,-178.776C-13.284,-180.956,-11.517,-182.722,-9.338,-182.722L9.363,-182.721C11.543,-182.721,13.308,-180.955,13.308,-178.775L13.285,178.775C13.285,180.954,11.518,182.722,9.338,182.721Z" /></g><g id="Group 25" transform="matrix(1,0,0,1,2247.467,3394.292)"><path fill="#e59d29" fill-opacity="1" d="M45.08,23.097L-45.084,23.09C-50.333,23.09,-54.587,18.835,-54.587,13.586L-54.586,-13.594C-54.585,-18.843,-50.33,-23.097,-45.081,-23.097L45.083,-23.091C50.332,-23.091,54.587,-18.836,54.586,-13.587L54.584,13.594C54.584,18.842,50.329,23.097,45.08,23.097Z" /></g><g id="Group 24" transform="matrix(1,0,0,1,1560.246,3394.245)"><path fill="#e59d29" fill-opacity="1" d="M45.081,23.097L-45.084,23.09C-50.332,23.09,-54.587,18.835,-54.586,13.586L-54.585,-13.594C-54.584,-18.843,-50.329,-23.097,-45.08,-23.097L45.084,-23.091C50.333,-23.091,54.587,-18.836,54.587,-13.587L54.585,13.594C54.585,18.842,50.33,23.097,45.081,23.097Z" /></g><g id="Group 23" transform="matrix(1,0,0,1,1901.605,3121.227)"><path fill="#f4b545" fill-opacity="1" d="M421.639,-71.727L302.144,-71.727L198.134,-71.747L2.281,-71.747L-89.581,-71.766L-193.591,-71.766L-285.296,-71.786L-421.618,-71.786C-433.883,-71.786,-443.918,-61.751,-443.918,-49.487L-443.918,5.542L-443.918,16.897L-443.918,49.958C-443.918,61.993,-434.162,71.75,-422.128,71.75L-401.671,71.75L-401.673,71.747L-254.464,71.747L-77.81,71.765L137.241,71.765L228.966,71.785L421.618,71.785C422.685,71.785,423.614,71.667,424.7,71.529C435.504,70.067,443.918,60.705,443.918,49.505L443.918,-49.427C443.918,-61.713,433.904,-71.727,421.639,-71.727Z" /></g><g id="Group 22" transform="matrix(1,0,0,1,2954.325,3193.035)"><path fill="#36588e" fill-opacity="1" d="M60.757,121.647L-50.806,-128.006C-50.893,-128.202,-51.084,-128.34,-51.345,-128.425C-50.337,-130.618,-49.444,-134.444,-53.639,-137.057C-59.823,-140.908,-62.247,-142.879,-62.247,-142.879C-62.247,-142.879,-64.337,-128.822,-56.434,-125.952C-56.439,-125.858,-56.427,-125.769,-56.395,-125.686L41.688,129.565C44.835,137.754,51.988,142.879,57.452,140.611C62.917,138.342,64.336,129.657,60.757,121.647Z" /></g><g id="Group 21" transform="matrix(1,0,0,1,3137.676,3253.222)"><path fill="#3b82f4" fill-opacity="1" d="M13.721,-132.537C10.171,-137.115,5.086,-139.403,0,-139.403L-61.182,-139.403L-61.182,-71.33L-81.948,-44.549L-81.948,139.403L-61.182,139.403L0,139.403L81.948,139.403L81.948,-40.017C81.948,-42.955,80.971,-45.808,79.171,-48.129L13.721,-132.537Z" /></g><g id="Group 20" transform="matrix(1,0,0,1,3076.495,3252.078)"><path fill="#c4d7f2" fill-opacity="1" d="M13.721,-131.393C6.621,-140.548,-6.622,-140.548,-13.721,-131.393L-79.678,-46.332C-81.15,-44.434,-81.948,-42.101,-81.948,-39.7L-81.948,140.547L81.948,140.547L81.948,-38.569C81.948,-41.704,80.906,-44.748,78.985,-47.226L13.721,-131.393Z" /></g><g id="Group 19" transform="matrix(1,0,0,1,2990.623,3173.041)"><path fill="#3b82f4" fill-opacity="1" d="M99.844,0.003C99.844,10.566,91.281,19.129,80.718,19.129L-99.844,19.129L-99.844,-19.13L80.718,-19.13C91.281,-19.13,99.844,-10.567,99.844,0.003Z" /></g><g id="Group 18" transform="matrix(1,0,0,1,2918.426,3173.041)"><path fill="#c4d7f2" fill-opacity="1" d="M27.646,19.129L-27.646,19.129L-27.646,-19.13L2.143,-19.13L27.646,19.129Z" /></g><g id="Group 17" transform="matrix(1,0,0,1,2866.427,3253.222)"><path fill="#3b82f4" fill-opacity="1" d="M13.72,-132.537C10.17,-137.115,5.086,-139.403,0,-139.403L-61.182,-139.403L-61.182,-71.33L-81.948,-44.549L-81.948,139.403L-61.182,139.403L0,139.403L81.948,139.403L81.948,-40.017C81.948,-42.955,80.971,-45.808,79.171,-48.129L13.72,-132.537Z" /></g><g id="Group 16" transform="matrix(1,0,0,1,2805.245,3252.078)"><path fill="#c4d7f2" fill-opacity="1" d="M13.721,-131.393C6.621,-140.548,-6.621,-140.548,-13.72,-131.393L-79.677,-46.332C-81.149,-44.434,-81.948,-42.101,-81.948,-39.7L-81.948,140.547L81.948,140.547L81.948,-38.569C81.948,-41.704,80.906,-44.748,78.985,-47.226L13.721,-131.393Z" /></g><g id="Group 15" transform="matrix(1,0,0,1,2968.314,3165.239)"><path fill="#ffcb48" fill-opacity="1" d="M16.172,86.657C23.141,85.341,29.848,89.929,31.134,96.899L35.68,121.354C45.429,114.575,50.787,102.538,48.501,90.131C47.443,84.482,44.908,79.48,41.375,75.428C37.814,71.378,33.283,68.277,28.2,66.492L16.791,5.296L2.434,-71.583L2.319,-72.214C10.511,-79.187,14.84,-90.184,12.724,-101.571C11.265,-109.352,7.006,-115.899,1.197,-120.36C-0.649,-121.816,-2.646,-123.064,-4.798,-124.042C-6.589,-124.899,-8.533,-125.575,-10.477,-126.073L-5.9,-101.618C-4.585,-94.619,-9.174,-87.944,-16.144,-86.628C-23.113,-85.341,-29.851,-89.901,-31.136,-96.901L-35.713,-121.355C-45.401,-114.544,-50.788,-102.568,-48.474,-90.13C-47.759,-86.315,-46.381,-82.762,-44.429,-79.625C-43.513,-78.117,-42.477,-76.699,-41.379,-75.4C-37.816,-71.379,-33.285,-68.307,-28.174,-66.491L-17.449,-8.931L-2.465,71.343L-2.292,72.214C-2.352,72.243,-2.383,72.304,-2.442,72.332C-10.545,79.337,-14.813,90.274,-12.726,101.571C-11.553,107.76,-8.632,113.183,-4.562,117.389C-4.532,117.419,-4.532,117.419,-4.503,117.449C-4.325,117.631,-4.146,117.814,-3.968,117.966C0.046,121.9,4.999,124.704,10.474,126.073L5.928,101.619C4.612,94.649,9.201,87.972,16.172,86.657Z" /></g><g id="Group 14" transform="matrix(1,0,0,1,3066.574,3173.385)"><path fill="#f4b545" fill-opacity="1" d="M-4.829,137.563L22.267,-134.538C22.288,-134.75,22.192,-134.964,22.007,-135.168C23.97,-136.57,26.645,-139.45,24.3,-143.8C20.844,-150.212,19.72,-153.128,19.72,-153.128C19.72,-153.128,10.926,-141.962,16.361,-135.547C16.311,-135.469,16.276,-135.386,16.263,-135.298L-25.312,134.97C-26.646,143.641,-22.98,151.642,-17.111,152.385C-11.241,153.128,-5.698,146.293,-4.829,137.563Z" /></g><g id="Group 13" transform="matrix(1,0,0,1,3009.08,3166.602)"><path fill="#36588e" fill-opacity="1" d="M47.615,-53.668C49.76,-43.239,43.054,-32.914,32.655,-30.627C30.114,-30.068,27.582,-30.029,25.167,-30.442C24.159,-30.614,23.174,-30.865,22.216,-31.189C18.975,-32.281,16.567,-35.025,15.83,-38.364L12.216,-54.731C11.482,-58.057,12.493,-61.549,14.955,-63.9C17.453,-66.284,20.614,-68.038,24.233,-68.837C34.877,-71.187,45.411,-64.382,47.615,-53.668ZM-12.234,-32.25C-11.487,-28.864,-12.519,-25.3,-15.043,-22.92C-15.76,-22.244,-16.532,-21.62,-17.353,-21.055C-19.368,-19.666,-21.682,-18.633,-24.22,-18.07C-34.615,-15.767,-45.046,-22.309,-47.491,-32.671C-50.003,-43.316,-43.313,-53.924,-32.669,-56.273C-29.168,-57.047,-25.681,-56.831,-22.497,-55.81C-19.121,-54.727,-16.576,-51.922,-15.812,-48.459L-12.234,-32.25ZM21.003,-83.47C9.697,-80.974,0.917,-73.2,-3.32,-63.312C-3.563,-62.744,-3.791,-62.168,-4.003,-61.586C-4.442,-62.024,-4.892,-62.449,-5.352,-62.861C-13.358,-70.048,-24.596,-73.402,-35.901,-70.906C-54.533,-66.793,-66.301,-48.355,-62.188,-29.723C-58.074,-11.091,-39.637,0.678,-21.005,-3.436C-18.078,-4.082,-15.322,-5.079,-12.768,-6.381L16.596,87.583L40.115,82.393L27.789,-10.666L27.435,-13.33L27.188,-15.202C30.053,-15.097,32.972,-15.353,35.899,-15.999C54.531,-20.112,66.302,-38.55,62.187,-57.182C58.074,-75.814,39.635,-87.583,21.003,-83.47Z" /></g><g id="Group 12" transform="matrix(1,0,0,1,3053.088,3300.968)"><path fill="#3b82f4" fill-opacity="1" d="M166.536,91.658L-166.536,91.658L-166.536,-91.658L166.536,-91.658L166.536,91.658Z" /></g><g id="Group 11" transform="matrix(1,0,0,1,2947.805,3353.053)"><path fill="#ffffff" fill-opacity="1" d="M36.658,18.867L-36.656,18.867C-40.059,18.867,-42.818,16.109,-42.818,12.706L-42.818,-12.708C-42.818,-16.111,-40.059,-18.867,-36.656,-18.867L36.658,-18.867C40.06,-18.867,42.818,-16.111,42.818,-12.708L42.818,12.706C42.818,16.109,40.06,18.867,36.658,18.867Z" /></g><g><g transform="translate(4677.507,1452.071)"><g id="Group 9" transform="scale(0,0)"><animateTransform repeatCount="indefinite" type="scale" attributeName="transform" dur="6.25s" begin="0.083s" calcMode="spline" values="0 0; 1 1; 1 1; 0 0" keyTimes="0; 0.187; 0.84; 1" keySplines="0.798 0 0.318 1; 0.481 0 0.667 1; 0.971 0 0.667 1" fill="freeze" /><path fill="#3b82f4" fill-opacity="1" d="M274.746,0C274.746,151.738,151.738,274.746,0,274.746C-151.737,274.746,-274.746,151.738,-274.746,0C-274.746,-151.738,-151.737,-274.746,0,-274.746C151.738,-274.746,274.746,-151.738,274.746,0Z" /></g></g></g><g opacity="0"><animate repeatCount="indefinite" attributeName="opacity" dur="5s" begin="0.3333333333333333s" calcMode="spline" values="0; 1; 1; 0" keyTimes="0; 0.117; 0.9; 1" keySplines="0.333 0 0.667 1; 0.333 0 0.667 1; 0.333 0 0.667 1" fill="freeze" /><g id="Group 135" transform="translate(2750,2000) translate(-2750,-2000)"><g id="Group 8" transform="matrix(1,0,0,1,4539.91,1448.571)"><path fill="#ffffff" fill-opacity="1" d="M58.08,-75.343L58.066,-38.789L-19.058,0.105L58.042,39.075L58.029,75.343L-58.08,15.326L-58.068,-15.435L58.08,-75.343Z" /></g><g id="Group 7" transform="matrix(1,0,0,1,4675.006,1452.071)"><path fill="#ffffff" fill-opacity="1" d="M-50.479,111.656L-77.017,111.647L50.783,-111.656L77.017,-111.647L-50.479,111.656Z" /></g><g id="Group 6" transform="matrix(1,0,0,1,4815.105,1448.634)"><path fill="#ffffff" fill-opacity="1" d="M-58.08,75.343L-58.066,38.677L19.058,0.024L-58.042,-38.956L-58.029,-75.343L58.08,-15.321L58.068,15.667L-58.08,75.343Z" /></g></g></g><g opacity="0"><animate repeatCount="indefinite" attributeName="opacity" dur="6.083s" begin="0.125s" calcMode="spline" values="0; 1; 1; 0" keyTimes="0; 0.041; 0.959; 1" keySplines="0.333 0 0.667 1; 0.333 0 0.667 1; 0.333 0 0.667 1" fill="freeze" /><g id="Group 5" transform="translate(4752.023,1820.144)"><path fill="#3b82f4" fill-opacity="1" d="M42.263,0C42.263,23.341,23.341,42.263,-0.001,42.263C-23.341,42.263,-42.263,23.341,-42.263,0C-42.263,-23.341,-23.341,-42.263,-0.001,-42.263C23.341,-42.263,42.263,-23.341,42.263,0Z" /></g></g><g opacity="0"><animate repeatCount="indefinite" attributeName="opacity" dur="6.583s" begin="0s" calcMode="spline" values="0; 1; 1; 0" keyTimes="0; 0.038; 0.962; 1" keySplines="0.333 0 0.667 1; 0.333 0 0.667 1; 0.333 0 0.667 1" fill="freeze" /><g id="Group 4" transform="translate(4597.989,1897.433)"><path fill="#3b82f4" fill-opacity="1" d="M28.376,0C28.376,15.672,15.672,28.376,0,28.376C-15.672,28.376,-28.376,15.672,-28.376,0C-28.376,-15.672,-15.672,-28.376,0,-28.376C15.672,-28.376,28.376,-15.672,28.376,0Z" /></g></g><g id="Group 3" transform="matrix(1,0,0,1,2771.113,3401.251)"><path fill="#36588e" fill-opacity="1" d="M-71.916,-13.531C-72.982,-7.743,-78.54,-3.925,-84.32,-5.013L-104.605,-8.811C-102.275,0.762,-94.561,8.51,-84.274,10.452C-79.585,11.322,-74.958,10.858,-70.765,9.334C-66.563,7.789,-62.808,5.211,-59.906,1.812L-9.127,11.284L54.671,23.169L55.192,23.27C58.14,31.696,65.356,38.336,74.803,40.104C81.262,41.303,87.603,39.963,92.793,36.802C94.473,35.809,96.037,34.636,97.438,33.264C98.637,32.134,99.741,30.832,100.709,29.476L80.413,25.702C74.602,24.627,70.807,19.079,71.873,13.29C72.962,7.511,78.507,3.66,84.309,4.76L104.605,8.531C102.232,-1.005,94.573,-8.757,84.254,-10.685C81.087,-11.273,77.927,-11.269,74.915,-10.697C73.474,-10.439,72.064,-10.061,70.73,-9.599C66.552,-8.045,62.82,-5.456,59.886,-2.043L12.126,-10.961L-54.488,-23.375L-55.214,-23.502C-55.218,-23.556,-55.256,-23.599,-55.26,-23.654C-58.258,-32.02,-65.446,-38.595,-74.813,-40.36C-79.955,-41.303,-85.027,-40.664,-89.5,-38.772C-89.532,-38.758,-89.532,-38.758,-89.564,-38.744C-89.758,-38.66,-89.954,-38.578,-90.124,-38.484C-94.37,-36.555,-98.021,-33.559,-100.719,-29.731L-80.433,-25.936C-74.645,-24.87,-70.85,-19.32,-71.916,-13.531Z" /></g></g></svg>

