<?xml version="1.0" encoding="utf-8"?><svg fill="none" viewBox="0 0 720 720" xmlns="http://www.w3.org/2000/svg"><defs /><g visibility="hidden" id="chat0.71 Outlines"><animate repeatCount="indefinite" calcMode="discrete" fill="freeze" dur="12.08s" values="visible; hidden" keyTimes="0; 1" attributeName="visibility" /><g transform="translate(364.406,487.85)"><animateTransform repeatCount="indefinite" type="translate" attributeName="transform" dur="24s" calcMode="spline" values="364.406 487.85; 364.406 497.85; 374.406 485.346; 351.067 486.182; 357.743 477.017; 364.406 487.85" keyTimes="0; 0.2; 0.4; 0.6; 0.8; 1" keySplines="0.6 0 0.4 1; 0.6 0 0.4 1; 0.6 0 0.4 1; 0.6 0 0.4 1; 0.6 0 0.4 1" fill="freeze" /><g transform="scale(0,0)"><animateTransform repeatCount="indefinite" type="scale" attributeName="transform" dur="24s" calcMode="spline" values="0 0; 1 1; 1 1; 0 0" keyTimes="0; 0.067; 0.933; 1" keySplines="0.75 0 0.224 1; 0 0 1 1; 0.691 0 0.307 1" fill="freeze" /><g transform="translate(-190.349,-237.223)"><g id="Group 2.83" transform="matrix(1,0,0,1,149.349,97.337)"><path stroke="#000000" stroke-width="1.5" fill="#cfcfcf" fill-opacity="1" d="M106.75,66.86L-110.7,96.58C-125.66,95.39,-143.2,83.84,-142.92,66.56L-148.24,-51.79C-147.93,-76.74,-126.41,-97.92,-101.28,-95.4L110.26,-83.89C133.2,-83.43,149.14,-68.06,149.07,-47.21L144.63,30.08C143.17,50.53,126.52,66.16,109.73,66.35Z" /></g><g id="Group 2.14" transform="matrix(1,0,0,1,149.214,206.372)"><path stroke="#000000" stroke-width="1.5" fill="#cfcfcf" fill-opacity="1" d="M-42.26,-37.74L41.53,36.43L17.93,-30.95" /></g></g></g></g></g><g visibility="hidden" id="chat1.15 Outlines"><animate repeatCount="indefinite" calcMode="discrete" fill="freeze" dur="10.88s" values="visible; hidden" keyTimes="0; 1" attributeName="visibility" /><g transform="translate(367.833,348.793)"><animateTransform repeatCount="indefinite" type="translate" attributeName="transform" dur="22.08s" calcMode="spline" values="367.833 348.793; 367.833 328.793; 367.833 348.793; 367.833 348.793; 367.833 328.793; 367.833 348.793; 367.833 348.793; 367.833 328.793; 367.833 348.793; 367.833 348.793; 367.833 328.793; 367.833 348.793; 367.833 348.793; 367.833 328.793; 367.833 348.793; 367.833 348.793; 367.833 328.793; 367.833 348.793; 367.833 348.793" keyTimes="0; 0.072; 0.145; 0.167; 0.239; 0.312; 0.333; 0.406; 0.478; 0.5; 0.572; 0.645; 0.667; 0.739; 0.812; 0.833; 0.906; 0.978; 1" keySplines="0.6 0 0.4 1; 0.6 0 0.4 1; 0 0 1 1; 0.6 0 0.4 1; 0.6 0 0.4 1; 0 0 1 1; 0.6 0 0.4 1; 0.6 0 0.4 1; 0 0 1 1; 0.6 0 0.4 1; 0.6 0 0.4 1; 0 0 1 1; 0.6 0 0.4 1; 0.6 0 0.4 1; 0 0 1 1; 0.6 0 0.4 1; 0.6 0 0.4 1; 0 0 1 1" fill="freeze" /><g transform="scale(1,1) translate(-6.772,-7.156)"><g id="Group 0.33" transform="matrix(1,0,0,1,6.772,7.156)"><path stroke="#000000" stroke-width="1.5" fill="#000000" fill-opacity="1" d="M-6.67,-0.17C-7.77,-3.75,-4.79,-5.43,0.52,-5.22C1.98,-6.13,7.9,-2.51,6.34,0.07C5.39,3.39,1.2,7.95,1.2,5.54C-5.02,6.7,-5.16,5.53,-8.41,1.91Z" /></g></g></g></g><g visibility="hidden" id="chat3.98 Outlines"><animate repeatCount="indefinite" calcMode="discrete" fill="freeze" dur="10.88s" values="visible; hidden" keyTimes="0; 1" attributeName="visibility" /><g transform="translate(321.906,348.793)"><animateTransform repeatCount="indefinite" type="translate" attributeName="transform" dur="22.08s" calcMode="spline" values="321.906 348.793; 321.906 328.793; 321.906 348.793; 321.906 348.793; 321.906 328.793; 321.906 348.793; 321.906 348.793; 321.906 328.793; 321.906 348.793; 321.906 348.793; 321.906 328.793; 321.906 348.793; 321.906 348.793; 321.906 328.793; 321.906 348.793; 321.906 348.793; 321.906 328.793; 321.906 348.793; 321.906 348.793" keyTimes="0; 0.072; 0.145; 0.167; 0.239; 0.312; 0.333; 0.406; 0.478; 0.5; 0.572; 0.645; 0.667; 0.739; 0.812; 0.833; 0.906; 0.978; 1" keySplines="0.6 0 0.4 1; 0.6 0 0.4 1; 0 0 1 1; 0.6 0 0.4 1; 0.6 0 0.4 1; 0 0 1 1; 0.6 0 0.4 1; 0.6 0 0.4 1; 0 0 1 1; 0.6 0 0.4 1; 0.6 0 0.4 1; 0 0 1 1; 0.6 0 0.4 1; 0.6 0 0.4 1; 0 0 1 1; 0.6 0 0.4 1; 0.6 0 0.4 1; 0 0 1 1" fill="freeze" /><g transform="scale(1,1) translate(-6.772,-7.156)"><g id="Group 0.37" transform="matrix(1,0,0,1,6.772,7.156)"><path stroke="#000000" stroke-width="1.5" fill="#000000" fill-opacity="1" d="M-6.69,-2.26C-9.29,-4.43,-5.94,-6.31,-1.32,-8.59C5.2,-6.52,4.38,-3.08,7.82,1.05C8.23,2.66,2.19,7.54,0.72,7.92C-4.53,8.09,-6.91,4.28,-5.69,-0.82Z" /></g></g></g></g><g visibility="hidden" id="chat2.62 Outlines"><animate repeatCount="indefinite" calcMode="discrete" fill="freeze" dur="10.88s" values="visible; hidden" keyTimes="0; 1" attributeName="visibility" /><g transform="translate(275.979,348.793)"><animateTransform repeatCount="indefinite" type="translate" attributeName="transform" dur="22.08s" calcMode="spline" values="275.979 348.793; 275.979 328.793; 275.979 348.793; 275.979 348.793; 275.979 328.793; 275.979 348.793; 275.979 348.793; 275.979 328.793; 275.979 348.793; 275.979 348.793; 275.979 328.793; 275.979 348.793; 275.979 348.793; 275.979 328.793; 275.979 348.793; 275.979 348.793; 275.979 328.793; 275.979 348.793; 275.979 348.793" keyTimes="0; 0.072; 0.145; 0.167; 0.239; 0.312; 0.333; 0.406; 0.478; 0.5; 0.572; 0.645; 0.667; 0.739; 0.812; 0.833; 0.906; 0.978; 1" keySplines="0.6 0 0.4 1; 0.6 0 0.4 1; 0 0 1 1; 0.6 0 0.4 1; 0.6 0 0.4 1; 0 0 1 1; 0.6 0 0.4 1; 0.6 0 0.4 1; 0 0 1 1; 0.6 0 0.4 1; 0.6 0 0.4 1; 0 0 1 1; 0.6 0 0.4 1; 0.6 0 0.4 1; 0 0 1 1; 0.6 0 0.4 1; 0.6 0 0.4 1; 0 0 1 1" fill="freeze" /><g transform="scale(1,1) translate(-6.772,-7.156)"><g id="Group 0.92" transform="matrix(1,0,0,1,6.773,7.156)"><path stroke="#000000" stroke-width="1.5" fill="#000000" fill-opacity="1" d="M-7.11,-0.88C-6.53,-4.8,-3.35,-7.47,-0.24,-7.12C3.95,-7.27,4.18,-2.7,5.99,-0.74C5.53,4.5,2.65,7.32,2.27,6.25C-3.01,6.59,-6.58,3.53,-7.67,-0.27Z" /></g></g></g></g><g visibility="hidden" id="TELP Outlines"><animate repeatCount="indefinite" calcMode="discrete" fill="freeze" dur="16.48s" values="visible; hidden" keyTimes="0; 1" attributeName="visibility" /><g transform="translate(407.33,318.002)"><animateTransform repeatCount="indefinite" type="translate" attributeName="transform" dur="32.8s" calcMode="spline" values="407.33 318.002; 405.702 318.002; 405.279 308.002; 404.836 328.249; 394.31 317.942; 413.642 317.948; 392.865 317.949; 401.994 327.958; 401.191 307.412; 400.243 318.137; 388.925 318.123; 398.287 318.075; 405.702 318.002; 405.279 308.002; 404.836 328.249; 394.31 317.942; 413.642 317.948; 392.865 317.949; 401.994 327.958; 401.191 307.412; 400.243 318.137; 388.925 318.123; 398.287 318.075; 392.18 308.002; 397.029 331.203; 391.873 324.996; 407.33 318.002" keyTimes="0; 0.049; 0.054; 0.059; 0.063; 0.068; 0.073; 0.078; 0.083; 0.088; 0.093; 0.098; 0.176; 0.18; 0.185; 0.19; 0.195; 0.2; 0.205; 0.21; 0.215; 0.22; 0.224; 0.39; 0.585; 0.78; 1" keySplines="0.6 0 0.4 1; 0.6 0 0.4 1; 0.6 0 0.4 1; 0.6 0 0.4 1; 0.6 0 0.4 1; 0.6 0 0.4 1; 0.6 0 0.4 1; 0.6 0 0.4 1; 0.6 0 0.4 1; 0.6 0 0.4 1; 0.6 0 0.4 1; 0.6 0 0.4 1; 0.6 0 0.4 1; 0.6 0 0.4 1; 0.6 0 0.4 1; 0.6 0 0.4 1; 0.6 0 0.4 1; 0.6 0 0.4 1; 0.6 0 0.4 1; 0.6 0 0.4 1; 0.6 0 0.4 1; 0.6 0 0.4 1; 0.6 0 0.4 1; 0.6 0 0.4 1; 0.6 0 0.4 1; 0.6 0 0.4 1" fill="freeze" /><g transform="scale(0,0)"><animateTransform repeatCount="indefinite" type="scale" attributeName="transform" dur="32.8s" calcMode="spline" values="0 0; 1 1; 1 1; 0 0" keyTimes="0; 0.049; 0.951; 1" keySplines="0.653 0 0.175 1; 0 0 1 1; 0.789 0 0.311 1" fill="freeze" /><g transform="translate(-72.565,-220.711)"><path stroke="#000000" stroke-width="1.5" d="M197.77,360.76C167.34,362.26,144.74,350.26,122.55,330.88C99.09,314.48,82.18,292.35,66.09,268.51C51.75,242.14,36.68,217.57,27.62,190.03C16.1,167.77,8.3,145.7,3.66,117.55C1.09,79.62,13.13,50.32,39.29,24.23C47.4,16.98,53.99,9.72,66.49,7.57C77.68,2.46,83.8,3.21,89.93,14.97C103.36,35.17,112.95,58.59,120.71,85.49C122.81,95.99,119.83,102.38,108.19,105.33C102.89,110.02,94.7,108.97,87.49,113.57C85.55,114.04,81.8,113.26,81,116.07C74.72,118.73,71.91,125.12,70.17,131.98C72.31,138.57,76.15,144.07,78.61,151.82C93.96,195.42,116.56,235.48,147.72,271.58C148.7,271.34,151.98,272.98,154.53,272.7C163.05,282.9,168.76,279.79,176.11,271.42C180.05,268.31,184.59,264.01,190.14,261.89C194.57,257.31,195.04,256.37,201.59,252.31C205.03,251.45,211.32,251.33,217.08,253.63C220.82,256.99,225.11,264.37,232.05,270.82C242.84,286.47,254.81,298.65,264.42,316.44C265.08,316.79,266.38,320.09,264.62,322.82C271.19,329.07,272.65,334.7,264.12,340.5C260.6,345.39,252.46,349.4,249.96,350.6C231.18,358.13,213.47,364.56,196.53,362.38Z" fill="#000000" fill-opacity="1" /></g></g></g></g><g visibility="hidden" id="line3.15 Outlines"><animate repeatCount="indefinite" calcMode="discrete" fill="freeze" dur="0.88s" values="visible; hidden" keyTimes="0; 1" attributeName="visibility" /><g transform="translate(630.59,440.608)"><animateTransform repeatCount="indefinite" type="translate" attributeName="transform" dur="1.6s" calcMode="spline" values="630.59 440.608; 630.59 430.608; 630.59 450.608; 620.59 440.608; 640.59 440.608; 640.59 450.608; 630.59 430.608; 640.59 430.608; 620.59 430.608; 620.59 450.608; 620.59 430.608" keyTimes="0; 0.1; 0.2; 0.3; 0.4; 0.5; 0.6; 0.7; 0.8; 0.9; 1" keySplines="0 0 1 1; 0 0 1 1; 0 0 1 1; 0 0 1 1; 0 0 1 1; 0 0 1 1; 0 0 1 1; 0 0 1 1; 0 0 1 1; 0 0 1 1" fill="freeze" /><g transform="scale(1,1) translate(-41.443,-53.973)"><g id="Group 2.36" transform="matrix(1,0,0,1,33,53.973)"><path stroke-linejoin="miter" stroke-linecap="round" stroke-width="6" stroke-opacity="1" stroke="#000000" d="M2.41,-38.72C-0.1,-39.54,18.22,-0.18,-17.71,37.77" /></g><g id="Group 2.48" transform="matrix(1,0,0,1,54.495,55.78)"><path stroke-linejoin="miter" stroke-linecap="round" stroke-width="6" stroke-opacity="1" stroke="#000000" d="M0.07,-30.39C-2.01,-26.87,14.04,2.26,-13.72,30.86" /></g></g></g></g><g visibility="hidden" id="line1.79 Outlines 1.27"><animate repeatCount="indefinite" calcMode="discrete" fill="freeze" dur="0.88s" values="visible; hidden" keyTimes="0; 1" attributeName="visibility" /><g transform="translate(630.59,440.608)"><animateTransform repeatCount="indefinite" type="translate" attributeName="transform" dur="1.6s" calcMode="spline" values="630.59 440.608; 630.59 430.608; 630.59 450.608; 620.59 440.608; 640.59 440.608; 640.59 450.608; 630.59 430.608; 640.59 430.608; 620.59 430.608; 620.59 450.608; 620.59 430.608" keyTimes="0; 0.1; 0.2; 0.3; 0.4; 0.5; 0.6; 0.7; 0.8; 0.9; 1" keySplines="0 0 1 1; 0 0 1 1; 0 0 1 1; 0 0 1 1; 0 0 1 1; 0 0 1 1; 0 0 1 1; 0 0 1 1; 0 0 1 1; 0 0 1 1" fill="freeze" /><g transform="scale(1,1) translate(-41.443,-53.973)"><g id="Group 0.64" transform="matrix(1,0,0,1,33,53.973)"><path stroke-linejoin="miter" stroke-linecap="round" stroke-width="6" stroke-opacity="1" stroke="#000000" d="M-1.86,-39.41C1.5,-38.66,19.63,-0.03,-18.64,38.17" /></g><g id="Group 1.75" transform="matrix(1,0,0,1,54.495,55.78)"><path stroke-linejoin="miter" stroke-linecap="round" stroke-width="6" stroke-opacity="1" stroke="#000000" d="M-1.83,-29.9C-1.19,-31.49,12.37,-0.2,-13.93,28.68" /></g></g></g></g><g id="line0.5 Outlines"><animate repeatCount="indefinite" calcMode="discrete" fill="freeze" dur="18.08s" values="visible; hidden" keyTimes="0; 1" attributeName="visibility" /><g transform="translate(245.6,369.725)"><animateTransform repeatCount="indefinite" type="translate" attributeName="transform" dur="36s" calcMode="spline" values="245.6 369.725; 245.6 349.725; 265.6 355.441; 247.6 371.155; 256.269 360.203; 239.703 356.063; 245.6 369.725" keyTimes="0; 0.178; 0.356; 0.533; 0.711; 0.889; 1" keySplines="0.6 0 0.4 1; 0.6 0 0.4 1; 0.6 0 0.4 1; 0.6 0 0.4 1; 0.6 0 0.4 1; 0.6 0 0.4 1" fill="freeze" /><g transform="scale(1,1) translate(-355.619,-291.176)"><path d="M143.4,246.51C231.74,226.16,202.09,153.19,292.35,140.37C352.86,132.05,403.98,208.77,371.95,261.95C351.12,285.17,264.26,343.26,324.82,401.57C355.24,427.76,427.08,419.79,450.32,402.81C463.55,390.73,477.33,353.59,450.63,330.83C426.43,314.44,394.11,318.02,374.1,326.42C331.27,344,300.53,408.73,318.35,453.9C334.14,488.69,395.02,508.9,427.62,501.98C441,497.77,461.35,488.11,464.42,473.84C466.21,458.6,463.96,431.84,427.82,428.69C399.81,425.6,369.95,427.72,341.19,458.77C315.52,491.01,334.98,524.09,359.54,539.34C409.18,575.99,513.3,567.85,541.54,559.71C585.2,553.73,604.87,533.24,618.27,507.41C633.86,478.08,627.33,451.26,621.14,424.19C616.61,407.84,603.53,387.32,578.16,372.11C567.98,363.64,558.34,352.69,550.75,345.57C539.03,338.44,528.95,326.69,518.82,316.43C509.22,304.33,501.4,292.29,493.57,282.79C486.74,270.14,477.65,259.15,474.18,247.16C462.95,233.68,456.75,219.46,451.01,204.76C440.18,181.62,431.63,159.18,430.04,134.99C428.49,96.43,439.03,62.79,466.16,36.91C473.65,30.71,481.6,23.46,489.22,21.69C504.2,15.5,512.3,17.53,517.13,29.35C528.19,50.7,537.37,74.15,546.23,100.98C548.96,110.78,545.79,114.97,534.23,119.42C527.62,123.65,522.28,124.13,513.23,126.03C512.58,130.21,510.19,129.2,505.67,129.24C501.18,131.7,496.61,139.59,497.97,146.73C500.18,151.52,500.82,155.62,502.76,163.88C520.3,209.82,541.53,249.05,575.27,282.82C575.16,286,576.55,285.85,575.79,287.34C585.07,292.45,594.49,294.55,603.38,285.7C607.38,282.77,609.62,278.47,615.36,274.37C616.68,271.16,620.08,270.13,623.92,266.41C629.91,265.57,635.96,262.42,640.73,266.5C644.32,275.16,654.43,278.91,656.95,287.29C668.64,298.19,676.38,313.79,691.01,330.72C690.1,330.39,691.97,332.24,693.45,335.7C695.42,342.45,695.63,350.71,686.69,355.32C682.05,359.83,676.51,363.46,671.16,366.64C656.48,371.45,639.62,374.7,622.49,376.26" stroke-linejoin="round" stroke-linecap="round" stroke-width="6" stroke-opacity="1" stroke="#000000"><animate repeatCount="indefinite" attributeName="d" dur="17.04s" calcMode="spline" values="M146.268,246.726C231.972,226.866,201.631,153.23,293.104,139.635C354.977,130.439,405.973,208.866,370.398,259.684C352.801,284.822,266.92,343.768,326.89,401.934C354.019,428.247,426.019,420.247,449.278,400.999C464.903,388.068,477.21,354.96,448.158,331.631C424.019,312.247,394.019,317.248,375.4,325.671C332.898,344.899,302.53,409.105,320.527,453.484C334.475,487.877,393.654,508.891,427.881,501.034C440.019,498.248,460.02,490.248,464.175,473.761C467.993,458.612,462.02,430.247,427.72,428.931C399.033,427.83,369.019,427.247,342.641,457.394C313.455,490.749,337.534,525.225,356.973,538.989C409.444,576.143,514.828,568.123,543.607,561.611C585.444,552.143,602.444,533.143,617.762,507.348C634.056,479.909,629.019,452.947,620.647,426C615.053,407.994,601.019,388.947,579.267,371.441C569.195,363.335,558.939,354.637,549.139,346.563C537.915,337.317,527.645,326.968,518.466,315.689C509.466,304.631,501.233,292.929,493.301,280.978C486.133,270.179,479.372,259.149,473.04,247.888C465.023,233.629,457.691,218.996,451.083,203.985C441.201,181.54,433.174,158.478,430.409,133.867C426.099,95.497,438.868,63.545,466.899,37.62C473.811,31.227,481.648,25.417,489.96,21.052C501.481,15,509.9,17.976,516.029,29.374C528.115,51.851,538.284,75.19,545.139,99.839C548.33,111.313,545.511,116.856,534.311,121.168C527.956,123.615,521.302,125.285,514.802,127.358C511.824,128.306,508.784,129.151,505.958,130.449C500.009,133.183,496.818,138.036,497.891,144.523C499.023,151.362,500.532,158.251,502.88,164.756C518.899,209.141,541.987,249.333,574.504,283.82C575.479,284.854,576.491,285.86,577.547,286.811C586.666,295.023,593.667,294.947,602.531,286.531C606.865,282.415,611.044,278.125,615.526,274.178C618.605,271.466,621.923,268.945,625.422,266.81C630.436,263.752,635.777,263.948,640.067,267.962C645.97,273.486,651.921,279.127,656.847,285.495C668.067,300.001,678.693,314.967,689.503,329.786C690.667,331.382,691.575,333.196,692.399,335.002C696.238,343.412,695.204,350.17,688.068,356.1C683.539,359.864,678.329,363.137,672.922,365.454C656.813,372.358,639.901,375.995,622.303,376.075; M253.268,309.726C150.475,284.724,166.631,173.23,258.104,159.635C319.977,150.439,373.351,183.321,370.398,259.684C369.212,290.346,339.573,387.411,385.89,398.934C403.474,403.309,419.078,394.315,422.278,377.999C423.914,369.65,421.415,360.394,415.158,354.631C409.166,349.11,400.537,347.261,392.4,347.671C345.81,350.022,302.53,409.105,320.527,453.484C334.475,487.877,379.933,501.185,412.881,489.034C421.877,485.716,431.145,479.293,432.175,469.761C433.23,459.981,427.009,450.007,410.72,448.931C392.485,447.728,378.688,458.83,373.641,476.394C366.803,500.195,379.512,527.789,396.973,543.989C422.153,567.352,471.833,554.012,498.607,541.611C525.527,529.142,548.691,509.001,563.762,483.348C572.523,468.435,578.417,451.971,581.647,435C585.172,416.477,590.14,388.034,579.267,371.441C572.18,360.628,558.939,354.637,549.139,346.563C537.915,337.317,527.645,326.968,518.466,315.689C509.466,304.631,501.233,292.929,493.301,280.978C486.133,270.179,479.372,259.149,473.04,247.888C465.023,233.629,457.691,218.996,451.083,203.985C441.201,181.54,433.174,158.478,430.409,133.867C426.099,95.497,438.868,63.545,466.899,37.62C473.811,31.227,481.648,25.417,489.96,21.052C501.481,15,509.901,17.976,516.029,29.374C528.115,51.851,538.284,75.19,545.139,99.839C548.33,111.313,545.511,116.856,534.311,121.168C527.956,123.615,521.302,125.285,514.802,127.358C511.824,128.306,508.784,129.151,505.958,130.449C500.009,133.183,496.819,138.036,497.891,144.523C499.023,151.362,500.532,158.251,502.88,164.756C518.899,209.141,541.987,249.333,574.504,283.82C575.479,284.854,576.491,285.86,577.547,286.811C586.666,295.023,593.667,294.947,602.531,286.531C606.865,282.415,611.044,278.125,615.526,274.178C618.605,271.466,621.923,268.945,625.422,266.81C630.436,263.752,635.777,263.948,640.067,267.962C645.97,273.486,651.921,279.127,656.847,285.495C668.067,300.001,678.693,314.967,689.503,329.786C690.667,331.382,691.575,333.196,692.399,335.002C696.238,343.412,695.204,350.17,688.068,356.1C683.539,359.864,678.329,363.137,672.922,365.454C656.813,372.358,639.901,375.995,622.303,376.075; M253.268,309.726C150.475,284.724,166.631,173.23,258.104,159.635C319.977,150.439,373.351,183.321,370.398,259.684C369.212,290.346,339.573,387.411,385.89,398.934C403.474,403.309,419.078,394.315,422.278,377.999C423.914,369.65,421.415,360.394,415.158,354.631C409.166,349.11,400.537,347.261,392.4,347.671C345.81,350.022,302.53,409.105,320.527,453.484C334.475,487.877,379.933,501.185,412.881,489.034C421.877,485.716,431.145,479.293,432.175,469.761C433.23,459.981,427.009,450.007,410.72,448.931C392.485,447.728,378.688,458.83,373.641,476.394C366.803,500.195,379.512,527.789,396.973,543.989C422.153,567.352,471.833,554.012,498.607,541.611C525.527,529.142,548.691,509.001,563.762,483.348C572.523,468.435,578.417,451.971,581.647,435C585.172,416.477,590.14,388.034,579.267,371.441C572.18,360.628,558.939,354.637,549.139,346.563C537.915,337.317,527.645,326.968,518.466,315.689C509.466,304.631,501.233,292.929,493.301,280.978C486.133,270.179,479.372,259.149,473.04,247.888C465.023,233.629,457.691,218.996,451.083,203.985C441.201,181.54,433.174,158.478,430.409,133.867C426.099,95.497,438.868,63.545,466.899,37.62C473.811,31.227,481.648,25.417,489.96,21.052C501.481,15,509.901,17.976,516.029,29.374C528.115,51.851,538.284,75.19,545.139,99.839C548.33,111.313,545.511,116.856,534.311,121.168C527.956,123.615,521.302,125.285,514.802,127.358C511.824,128.306,508.784,129.151,505.958,130.449C500.009,133.183,496.819,138.036,497.891,144.523C499.023,151.362,500.532,158.251,502.88,164.756C518.899,209.141,541.987,249.333,574.504,283.82C575.479,284.854,576.491,285.86,577.547,286.811C586.666,295.023,593.667,294.947,602.531,286.531C606.865,282.415,611.044,278.125,615.526,274.178C618.605,271.466,621.923,268.945,625.422,266.81C630.436,263.752,635.777,263.948,640.067,267.962C645.97,273.486,651.921,279.127,656.847,285.495C668.067,300.001,678.693,314.967,689.503,329.786C690.667,331.382,691.575,333.196,692.399,335.002C696.238,343.412,695.204,350.17,688.068,356.1C683.539,359.864,678.329,363.137,672.922,365.454C656.813,372.358,639.901,375.995,622.303,376.075; M146.268,246.726C231.972,226.866,201.631,153.23,293.104,139.635C354.977,130.439,405.973,208.866,370.398,259.684C352.801,284.822,266.92,343.768,326.89,401.934C354.019,428.247,426.019,420.247,449.278,400.999C464.903,388.068,477.21,354.96,448.158,331.631C424.019,312.247,394.019,317.248,375.4,325.671C332.898,344.899,302.53,409.105,320.527,453.484C334.475,487.877,393.654,508.891,427.881,501.034C440.019,498.248,460.02,490.248,464.175,473.761C467.993,458.612,462.02,430.247,427.72,428.931C399.033,427.83,369.019,427.247,342.641,457.394C313.455,490.749,337.534,525.225,356.973,538.989C409.444,576.143,514.828,568.123,543.607,561.611C585.444,552.143,602.444,533.143,617.762,507.348C634.056,479.909,629.019,452.947,620.647,426C615.053,407.994,601.019,388.947,579.267,371.441C569.195,363.335,558.939,354.637,549.139,346.563C537.915,337.317,527.645,326.968,518.466,315.689C509.466,304.631,501.233,292.929,493.301,280.978C486.133,270.179,479.372,259.149,473.04,247.888C465.023,233.629,457.691,218.996,451.083,203.985C441.201,181.54,433.174,158.478,430.409,133.867C426.099,95.497,438.868,63.545,466.899,37.62C473.811,31.227,481.648,25.417,489.96,21.052C501.481,15,509.9,17.976,516.029,29.374C528.115,51.851,538.284,75.19,545.139,99.839C548.33,111.313,545.511,116.856,534.311,121.168C527.956,123.615,521.302,125.285,514.802,127.358C511.824,128.306,508.784,129.151,505.958,130.449C500.009,133.183,496.818,138.036,497.891,144.523C499.023,151.362,500.532,158.251,502.88,164.756C518.899,209.141,541.987,249.333,574.504,283.82C575.479,284.854,576.491,285.86,577.547,286.811C586.666,295.023,593.667,294.947,602.531,286.531C606.865,282.415,611.044,278.125,615.526,274.178C618.605,271.466,621.923,268.945,625.422,266.81C630.436,263.752,635.777,263.948,640.067,267.962C645.97,273.486,651.921,279.127,656.847,285.495C668.067,300.001,678.693,314.967,689.503,329.786C690.667,331.382,691.575,333.196,692.399,335.002C696.238,343.412,695.204,350.17,688.068,356.1C683.539,359.864,678.329,363.137,672.922,365.454C656.813,372.358,639.901,375.995,622.303,376.075" keyTimes="0; 0.507; 0.775; 1" keySplines="0.167 0.167 0.14 1; 0.333 0 0.833 1; 0.167 0 0.833 0.833" fill="freeze" /></path></g></g></g><g transform="matrix(1,0,0,1,876,244)" opacity="0" id="Null 0.48" /></svg>