<?xml version="1.0" encoding="utf-8"?><svg fill="none" viewBox="0 0 300 300" xmlns="http://www.w3.org/2000/svg"><defs /><g transform="matrix(0.28,0,0,0.28,150,150)" id="Bg"><g id="Group 1.8"><path stroke="#000000" stroke-width="2.5" fill="#e0e0e0" fill-opacity="1" d="M465,-159.5C448.3,-328.7,163.4,-697.9,-211.1,-431.1C-291.8,-369.3,-343,-291.8,-368.5,-40.5C-374.3,31.3,-411.2,96.2,-453.5,221C-479.2,290.4,-482.4,452.7,-348.3,498C-171.1,552.3,52.8,517,159,468.8C294.5,402,500.8,174.6,467.4,-159.6Z" /></g></g><g opacity="0" id="Null 5.1"><g transform="translate(150,150)"><g transform="scale(0.28,0.28)"><animateTransform repeatCount="indefinite" type="scale" attributeName="transform" dur="7.899s" begin="0.05s" calcMode="spline" values="0.28 0.28; 0.26 0.26; 0.26 0.26; 0.28 0.28" keyTimes="0; 0.38; 0.646; 1" keySplines="0.71 0 0.29 1; 0.71 0 0.29 1; 0.71 0 0.29 1" fill="freeze" /><g transform="translate(-50,-50)" /></g></g></g><g id="Null 6.1"><g transform="translate(150,150)"><g transform="scale(0.28,0.28)"><animateTransform repeatCount="indefinite" type="scale" attributeName="transform" dur="7.899s" begin="0.05s" calcMode="spline" values="0.28 0.28; 0.26 0.26; 0.26 0.26; 0.28 0.28" keyTimes="0; 0.38; 0.646; 1" keySplines="0.71 0 0.29 1; 0.71 0 0.29 1; 0.71 0 0.29 1" fill="freeze" /><g transform="translate(-50,-50)"><g transform="matrix(1,0,0,1,50,50)" id="Folder Back"><g id="Group 0.9"><path stroke="#000000" stroke-width="2.5" fill="#666666" fill-opacity="1" d="M-351.9,400.1L-433.6,-28.5C-440,-46.5,-423.8,-67.9,-401.8,-66.8L182.4,-70.3C196.4,-68.5,213.9,-55.5,214.2,-39.2L303,386.2C305.1,410.1,289.8,428.7,264.2,427.7L-314.2,427.7C-330.2,427.8,-346.9,419.2,-352.5,400.7Z" /></g></g></g></g></g></g><g id="Null 2.6"><g transform="translate(150,150)"><g transform="scale(0.28,0.28)"><animateTransform repeatCount="indefinite" type="scale" attributeName="transform" dur="7.899s" begin="0.05s" calcMode="spline" values="0.28 0.28; 0.26 0.26; 0.26 0.26; 0.28 0.28" keyTimes="0; 0.38; 0.646; 1" keySplines="0.71 0 0.29 1; 0.71 0 0.29 1; 0.71 0 0.29 1" fill="freeze" /><g transform="translate(-50,-50)"><g id="Frile Back"><g transform="translate(18.35,121.753)"><animateTransform repeatCount="indefinite" type="translate" attributeName="transform" dur="6.699s" begin="0.45s" calcMode="spline" values="18.35 121.753; 18.35 -1.657; 18.35 -1.657; 18.35 121.753" keyTimes="0; 0.455; 0.582; 1" keySplines="0.71 0 0.29 1; 0 0 1 1; 0.71 0 0.29 1" fill="freeze" /><g transform="scale(1,1) translate(31.65,-71.753)"><g id="Group 1.9"><path stroke="#000000" stroke-width="2.5" fill="#bbbbbb" fill-opacity="1" d="M-277.3,-239.5L212.9,-242.3C232.6,-238.7,246.4,-225.7,247.6,-205.7L250.5,347.9C247,368.1,231,385,214.7,386.1L-277.3,384.6C-294.2,381.7,-313.5,367.3,-309.9,348.3L-311.9,-206C-308.9,-222.9,-294.6,-239.6,-275,-242.7Z" /></g></g></g></g></g></g></g></g><g id="Sparkle"><g transform="translate(271.528,258.61)"><g transform="rotate(0)"><animateTransform repeatCount="indefinite" type="rotate" attributeName="transform" dur="8.751s" begin="0.508s" calcMode="spline" values="0; 180; 360" keyTimes="0; 0.471; 1" keySplines="0.71 0 0.29 1; 0.71 0 0.29 1" fill="freeze" /><g transform="scale(0.27,0.27)"><animateTransform repeatCount="indefinite" type="scale" attributeName="transform" dur="8.751s" begin="0.508s" calcMode="spline" values="0.27 0.27; 0.356 0.356; 0.27 0.27" keyTimes="0; 0.471; 1" keySplines="0.71 0 0.29 1; 0.71 0 0.29 1" fill="freeze" /><g transform="translate(99.896,407)"><g id="Group 2.7"><path stroke="#000000" stroke-width="2.5" fill="#999999" fill-opacity="1" d="M-62.9,-412.3L-95,-411.4L-93.7,-438.4L-104.2,-441.9L-104.4,-414.8L-136,-413.4L-136.5,-402.8L-104.3,-402.6L-104.1,-375.3L-92.2,-374.6L-92.4,-399L-64.2,-399.8L-65.2,-411.9Z" /></g></g></g></g></g></g><g id="Sparkle 3.8"><g transform="translate(271.528,31.61)"><g transform="rotate(0.165)"><animateTransform repeatCount="indefinite" type="rotate" attributeName="transform" dur="8.751s" begin="0s" calcMode="spline" values="0; 180; 360" keyTimes="0; 0.471; 1" keySplines="0.71 0 0.29 1; 0.71 0 0.29 1" fill="freeze" /><g transform="scale(0.27,0.27)"><animateTransform repeatCount="indefinite" type="scale" attributeName="transform" dur="8.751s" begin="0s" calcMode="spline" values="0.27 0.27; 0.356 0.356; 0.27 0.27" keyTimes="0; 0.471; 1" keySplines="0.71 0 0.29 1; 0.71 0 0.29 1" fill="freeze" /><g transform="translate(99.896,407)"><g id="Group 3.3"><path stroke="#000000" stroke-width="2.5" fill="#999999" fill-opacity="1" d="M-65.9,-410.9L-95.2,-414.1L-93.2,-438.5L-107.4,-442.3L-104.6,-412.6L-136.5,-413L-134.5,-399.9L-105.9,-401.5L-105.2,-372.6L-94.6,-373.4L-96.2,-401.8L-67.1,-399.1L-63.6,-411.1Z" /></g></g></g></g></g></g><g id="Sparkle 1.4"><g transform="translate(22.94,83.048)"><g transform="scale(0.28,0.28)"><animateTransform repeatCount="indefinite" type="scale" attributeName="transform" dur="9.801s" begin="0.05s" calcMode="spline" values="0.28 0.28; 0.398 0.398; 0.28 0.28" keyTimes="0; 0.495; 1" keySplines="0.71 0 0.29 1; 0.71 0 0.29 1" fill="freeze" /><g transform="translate(514.5,139.113)"><g id="Group 2.4"><path stroke="#000000" stroke-width="2.5" fill="#999999" fill-opacity="1" d="M-516.6,-154.4C-524.6,-156.1,-531.4,-146.4,-529.1,-140.8C-531.9,-130.2,-521.1,-121.9,-516.6,-124C-506.3,-125.4,-497.1,-132.8,-497,-137.6C-500.9,-149.4,-506.7,-156.2,-514.9,-152.3ZM-515.6,-113.1C-527.1,-112.6,-539.8,-125.2,-542.9,-138C-539.7,-153.5,-527.4,-165.1,-512.3,-167.7C-501.3,-165,-487,-156.4,-485.2,-139.6C-488.3,-121.8,-500,-114.3,-513.1,-114.6Z" /></g></g></g></g></g><g id="Null 6"><g transform="translate(150,150)"><g transform="scale(0.28,0.28)"><animateTransform repeatCount="indefinite" type="scale" attributeName="transform" dur="7.899s" begin="0.05s" calcMode="spline" values="0.28 0.28; 0.26 0.26; 0.26 0.26; 0.28 0.28" keyTimes="0; 0.38; 0.646; 1" keySplines="0.71 0 0.29 1; 0.71 0 0.29 1; 0.71 0 0.29 1" fill="freeze" /><g transform="translate(-50,-50)"><g id="File Front"><g transform="translate(86.35,-17.247)"><animateTransform repeatCount="indefinite" type="translate" attributeName="transform" dur="6.9s" begin="0.05s" calcMode="spline" values="86.35 -17.247; 86.35 -141.413; 86.35 -141.413; 86.35 -17.247" keyTimes="0; 0.435; 0.551; 1" keySplines="0.71 0 0.29 1; 0 0 1 1; 0.71 0 0.29 1" fill="freeze" /><g transform="scale(1,1) translate(-36.35,67.247)"><g id="Group 5.7"><path stroke="#000000" stroke-width="2.5" fill="#ffffff" fill-opacity="1" d="M-205.9,-380.7L279.4,-378.8C300.7,-377.2,313.8,-364.3,313.8,-342.6L318.1,208.2C318.2,226.8,300.9,242.6,279.1,246L-209.4,244C-227.4,246.6,-243.4,230,-245.6,208.4L-243.7,-344.7C-241.7,-362.3,-230.2,-378.8,-206,-380.1Z" /></g><g id="Group 1.5" transform="matrix(1,0,0,1,0,0)" opacity="0.4"><path stroke="#000000" stroke-width="2.5" fill="#777777" fill-opacity="1" d="M-174.8,-165.9C-177.6,-153.6,-169,-147.2,-157.6,-147L236.9,-145.7C242.2,-148.3,253.6,-155.6,250.5,-164.8C253,-173.2,243.2,-179.9,235.2,-182.2L-157.3,-180.5C-167.1,-179.4,-178.4,-173.4,-175.2,-165Z" /></g><g id="Group 0.4" transform="matrix(1,0,0,1,0,0)" opacity="0.4"><g id="Group 3.5" transform="matrix(1,0,0,1,0,95.32)" opacity="0.4"><path stroke="#000000" stroke-width="2.5" fill="#777777" fill-opacity="1" d="M-175,-60C-175.6,-54,-168.9,-42.2,-160.4,-43.6L233,-44.9C244.6,-42.5,251.1,-49.5,251.8,-61.3C251.7,-71.8,244.4,-80.5,235.4,-80.6L-157.5,-77.7C-170.7,-75.8,-174.3,-70,-174.8,-58.7Z" /></g><path stroke="#000000" stroke-width="2.5" d="M-175.1,-63.6C-175.8,-50.9,-168.8,-45.8,-157.5,-45.4L236,-46.2C244.1,-42.4,254,-53.9,254.2,-61.8C252.2,-72.9,246.2,-78.2,233.8,-77.3L-160.8,-78.1C-168.6,-79.8,-178.7,-68.8,-175.5,-60.7Z" fill="#777777" fill-opacity="1" /></g><g id="Group 0.4"><path stroke="#000000" stroke-width="2.5" fill="#777777" fill-opacity="1" d="M-176.7,-267.4C-175.7,-257.2,-170.7,-247.9,-161.8,-250.2L-37.4,-249.4C-27.1,-248.2,-17.7,-257.4,-20.7,-266.5C-21.2,-275.4,-29.5,-285.7,-34.9,-284.7L-158.3,-282.6C-168.7,-286.1,-176.1,-278.2,-177.2,-267.4Z" /></g></g></g></g></g></g></g></g><g id="Null 5.4"><g transform="translate(150,150)"><g transform="scale(0.28,0.28)"><animateTransform repeatCount="indefinite" type="scale" attributeName="transform" dur="7.899s" begin="0.05s" calcMode="spline" values="0.28 0.28; 0.26 0.26; 0.26 0.26; 0.28 0.28" keyTimes="0; 0.38; 0.646; 1" keySplines="0.71 0 0.29 1; 0.71 0 0.29 1; 0.71 0 0.29 1" fill="freeze" /><g transform="translate(-50,-50)"><g transform="matrix(1,0,0,1,50,50)" id="Folder Front"><g id="Group 0.1"><path stroke="#000000" stroke-width="2.5" fill="#222222" fill-opacity="1" d="M-331.3,380.5L-196.7,40.1C-187.9,24.6,-179.1,19.6,-164.7,17.8L412.9,15.6C438.1,20.2,459.1,44.1,449.6,65.1L309.5,405.7C305.7,418.6,293.4,427.8,275,430.3L-299.1,429.8C-328.1,429.4,-345,405.7,-333.6,380.9Z" /></g></g></g></g></g></g></svg>
